<svg xmlns="http://www.w3.org/2000/svg" version="1.1" xmlns:xlink="http://www.w3.org/1999/xlink" xmlns:svgjs="http://svgjs.dev/svgjs" width="1500" height="1500" viewBox="0 0 1500 1500"><rect width="1500" height="1500" fill="#ffffff"></rect><g transform="matrix(0.6666666666666666,0,0,0.6666666666666666,249.78425655976667,249.78425655976673)"><svg viewBox="0 0 343 343" data-background-color="#ffffff" preserveAspectRatio="xMidYMid meet" height="1500" width="1500" xmlns="http://www.w3.org/2000/svg" xmlns:xlink="http://www.w3.org/1999/xlink"><g id="tight-bounds" transform="matrix(1,0,0,1,0.0740000000000407,0.07400000000001228)"><svg viewBox="0 0 342.85155851775386 342.85155851775386" height="342.85155851775386" width="342.85155851775386"><g><svg></svg></g><g><svg viewBox="0 0 342.85155851775386 342.85155851775386" height="342.85155851775386" width="342.85155851775386"><g><path d="M0 171.426c0-94.676 76.75-171.426 171.426-171.426 94.676 0 171.426 76.75 171.426 171.426 0 94.676-76.75 171.426-171.426 171.426-94.676 0-171.426-76.75-171.426-171.426zM171.426 340.486c93.369 0 169.06-75.691 169.06-169.06 0-93.369-75.691-169.06-169.06-169.06-93.369 0-169.06 75.691-169.06 169.06 0 93.369 75.691 169.06 169.06 169.06z" data-fill-palette-color="tertiary" fill="#000000" stroke="transparent"></path><ellipse rx="164.56874808852186" ry="164.56874808852186" cx="171.42577925887693" cy="171.42577925887693" fill="#000000" stroke="transparent" stroke-width="0" fill-opacity="1" data-fill-palette-color="tertiary"></ellipse></g><g transform="matrix(1,0,0,1,64.84655864529837,111.11172917483347)"><svg viewBox="0 0 213.1584412271571 120.62810016808692" height="120.62810016808692" width="213.1584412271571"><g><svg viewBox="0 0 213.1584412271571 120.62810016808692" height="120.62810016808692" width="213.1584412271571"><g><svg viewBox="0 0 213.1584412271571 120.62810016808692" height="120.62810016808692" width="213.1584412271571"><g transform="matrix(1,0,0,1,0,72.5867319711788)"><svg viewBox="0 0 213.1584412271571 48.0413681969081" height="48.0413681969081" width="213.1584412271571"><g id="textblocktransform"><svg viewBox="0 0 213.1584412271571 48.0413681969081" height="48.0413681969081" width="213.1584412271571" id="textblock"><g><svg viewBox="0 0 213.1584412271571 26.235454358138075" height="26.235454358138075" width="213.1584412271571"><g transform="matrix(1,0,0,1,0,0)"><svg width="213.1584412271571" viewBox="1.78 -34.03 281.25 34.620000000000005" height="26.235454358138075" data-palette-color="#ffffff"><path d="M2.54-0.17L2.54-0.17 2.25-0.17Q1.78-0.27 1.78-0.63L1.78-0.63Q1.78-1.07 1.87-1.35 1.95-1.64 2.47-1.86L2.47-1.86Q2.88-2.05 3.42-2.17 3.96-2.29 4.49-2.42 5.03-2.54 5.51-2.7 5.98-2.86 6.3-3.13L6.3-3.13Q6.54-3.32 6.73-3.61 6.91-3.91 7.04-4.24 7.18-4.57 7.28-4.9 7.37-5.22 7.5-5.49L7.5-5.49 7.74-11.33 7.5-12.74Q7.5-12.87 7.56-13.11 7.62-13.35 7.67-13.53L7.67-13.53Q7.54-14.45 7.52-15.43 7.5-16.41 7.5-17.43L7.5-17.43Q7.5-18.33 7.52-19.24 7.54-20.14 7.67-21.07L7.67-21.07 7.62-21.58Q7.62-21.68 7.53-22.24 7.45-22.8 7.36-23.5 7.28-24.19 7.19-24.9 7.1-25.61 7.1-26.03L7.1-26.03 6.98-26.78 7.1-28.13Q7.1-28.64 7.09-29.19 7.08-29.74 6.98-30.1L6.98-30.1Q6.84-30.62 6.45-30.91 6.05-31.2 5.54-31.38 5.03-31.57 4.48-31.65 3.93-31.74 3.47-31.85 3-31.96 2.71-32.12 2.42-32.28 2.42-32.57L2.42-32.57Q2.42-32.84 2.53-32.87 2.64-32.91 2.83-33.08L2.83-33.08 3.05-33.15Q4.15-33.28 5.27-33.34 6.4-33.4 7.5-33.4L7.5-33.4Q7.86-33.4 8.2-33.35 8.54-33.3 8.89-33.25 9.23-33.2 9.61-33.15 9.99-33.11 10.45-33.11L10.45-33.11 15.48-33.4 17.41-33.4Q17.85-33.2 17.85-33.03L17.85-33.03Q17.85-32.81 17.7-32.67 17.55-32.52 17.35-32.42 17.14-32.32 16.91-32.28 16.67-32.23 16.53-32.23L16.53-32.23 15.43-32.23Q15.16-32.23 14.93-32.2 14.7-32.18 14.5-32.01L14.5-32.01Q13.72-31.59 13.1-31.1 12.48-30.62 11.72-30.1L11.72-30.1Q11.5-30.1 11.5-29.98L11.5-29.98Q11.79-29.49 11.9-28.98 12.01-28.47 12.01-27.95L12.01-27.95Q12.01-27.56 11.88-27.2 11.74-26.83 11.6-26.44L11.6-26.44 11.5-26.05Q11.5-25.59 11.56-25.23 11.62-24.88 11.71-24.54 11.79-24.19 11.9-23.84 12.01-23.49 12.13-23.02L12.13-23.02 12.13-20.58 12.21-19.78Q12.21-19.73 12.19-19.49 12.18-19.26 12.13-19.09L12.13-19.09Q12.13-18.82 12.4-18.47 12.67-18.12 12.94-17.94L12.94-17.94 13.57-17.94Q14.09-17.94 14.45-18.02 14.82-18.09 15.31-18.21L15.31-18.21 16.48-18.21 20.97-17.94 22.71-18.07Q23.19-18.07 23.49-17.86 23.78-17.65 24.12-17.65L24.12-17.65Q24.63-17.65 25.09-17.8 25.54-17.94 25.95-17.94L25.95-17.94 28.34-17.65 29.42-17.75Q29.54-17.77 29.82-17.93 30.1-18.09 30.2-18.21L30.2-18.21Q30.2-18.21 30.3-18.26L30.3-18.26 30.37-18.33Q30.44-18.7 30.53-19.19 30.62-19.68 30.68-20.2 30.74-20.73 30.77-21.23 30.81-21.73 30.81-22.14L30.81-22.14Q30.81-22.51 30.66-22.91 30.52-23.32 30.52-23.71L30.52-23.71Q30.52-24.22 30.66-24.72 30.81-25.22 30.98-25.7 31.15-26.17 31.3-26.62 31.45-27.08 31.45-27.54L31.45-27.54Q31.45-28.81 30.8-29.59 30.15-30.37 29.2-31.05L29.2-31.05Q29.03-31.2 28.61-31.27 28.2-31.35 27.66-31.38 27.12-31.42 26.55-31.46 25.98-31.49 25.5-31.59 25.02-31.69 24.71-31.87 24.39-32.06 24.39-32.4L24.39-32.4Q24.39-32.76 24.56-32.96 24.73-33.15 24.96-33.29 25.2-33.42 25.46-33.52 25.73-33.62 25.95-33.79L25.95-33.79 27.34-33.79 36.89-33.11 37.35-33.11Q37.65-33.11 37.65-33.15L37.65-33.15 38.33-33.4 40.55-33.4Q40.82-33.4 41-33.19 41.19-32.98 41.19-32.69L41.19-32.69Q41.19-32.3 40.86-32.09 40.53-31.88 40.09-31.77 39.65-31.67 39.18-31.63 38.72-31.59 38.45-31.54L38.45-31.54Q37.77-31.42 37.28-30.93 36.79-30.44 36.3-29.79L36.3-29.79Q36.23-28.61 36.04-27.5 35.84-26.39 35.57-25.22L35.57-25.22Q35.52-25.12 35.4-24.84 35.28-24.56 35.28-24.46L35.28-24.46 35.4-22.51 35.28-20.43Q35.28-20.34 35.34-20.07 35.4-19.8 35.4-19.78L35.4-19.78 35.28-19.04Q35.28-18.9 35.34-18.75 35.4-18.6 35.4-18.33L35.4-18.33 35.06-15.97 35.57-14.28 34.99-12.16 35.28-11.11Q35.28-10.77 35.13-10.42 34.99-10.08 34.99-9.62L34.99-9.62 35.4-8.03Q35.4-7.64 35.19-7.29 34.99-6.93 34.99-6.42L34.99-6.42Q34.99-3.49 36.77-2.54L36.77-2.54Q37.26-2.25 38.01-2.2 38.77-2.15 39.38-2.15L39.38-2.15Q39.6-2.15 39.77-2.12 39.94-2.1 40.14-2.08L40.14-2.08Q40.65-1.98 40.75-1.6 40.84-1.22 40.84-0.88L40.84-0.88Q40.82-0.61 40.58-0.44 40.33-0.27 40.19-0.17L40.19-0.17Q39.06 0.1 37.88 0.17 36.69 0.24 35.38 0.24L35.38 0.24 34.47 0.24Q34.25 0.24 34.05 0.24 33.84 0.24 33.67 0.22L33.67 0.22 30.64-0.17 27.88 0.07 27 0.22 25.27 0.22Q24.88 0.22 24.58-0.06 24.29-0.34 24.29-0.51L24.29-0.51Q24.29-0.95 24.44-1.22 24.58-1.49 24.85-1.64L24.85-1.64Q25.12-1.76 25.42-1.81 25.71-1.86 25.98-1.86L25.98-1.86 26.61-1.86Q26.88-1.9 26.97-2.05 27.05-2.2 27.22-2.37L27.22-2.37Q27.59-2.64 28.08-2.84 28.56-3.05 29-3.31 29.44-3.56 29.75-3.91 30.05-4.25 30.05-4.81L30.05-4.81 29.88-6.32Q29.88-7.25 29.99-8.14 30.1-9.03 30.2-9.89L30.2-9.89Q30.25-10.16 30.38-10.38 30.52-10.6 30.52-10.82L30.52-10.82Q30.52-10.99 30.51-11.13 30.49-11.28 30.37-11.45L30.37-11.45 30.37-14.87Q30.37-15.23 30.04-15.54 29.71-15.84 29.25-16.06 28.78-16.28 28.28-16.39 27.78-16.5 27.47-16.5L27.47-16.5Q27.27-16.5 27.09-16.42 26.9-16.33 26.71-16.24 26.51-16.14 26.31-16.05 26.1-15.97 25.85-15.97L25.85-15.97 24-16.31Q23.73-16.31 23.51-16.19 23.29-16.06 23.05-15.91 22.8-15.75 22.5-15.63 22.19-15.5 21.75-15.5L21.75-15.5Q21.29-15.63 20.94-15.72 20.58-15.82 20.24-15.88 19.9-15.94 19.53-15.98 19.17-16.02 18.68-16.02L18.68-16.02 17.87-16.02Q17.6-16.02 17.42-15.99 17.24-15.97 17.21-15.97L17.21-15.97Q16.87-15.87 16.52-15.8 16.16-15.72 15.72-15.72L15.72-15.72Q15.58-15.77 15.33-15.81 15.09-15.84 14.84-15.88 14.6-15.92 14.42-15.94 14.23-15.97 14.21-15.97L14.21-15.97 13.53-16.5Q13.31-16.5 13.05-16.28 12.79-16.06 12.7-15.97L12.7-15.97Q12.38-15.75 12.18-15.58 11.99-15.41 11.89-15.2 11.79-14.99 11.76-14.72 11.72-14.45 11.72-14.06L11.72-14.06Q11.72-13.43 11.78-12.7 11.84-11.96 12.01-11.33L12.01-11.33Q12.04-11.25 12.06-11.12 12.08-10.99 12.12-10.82 12.16-10.64 12.18-10.51 12.21-10.38 12.21-10.3L12.21-10.3Q12.26-10.3 12.26-10.08L12.26-10.08Q12.26-9.84 12.19-9.61 12.13-9.38 12.13-9.03L12.13-9.03 12.26-7.64Q12.26-7.57 12.21-7.52L12.21-7.52 12.01-6.93Q12.04-6.81 12.06-6.71L12.06-6.71Q12.11-6.47 12.13-6.42L12.13-6.42Q12.23-6.2 12.24-5.92 12.26-5.64 12.26-5.4L12.26-5.4 12.26-4.81Q12.26-4.27 12.34-3.78 12.43-3.3 12.94-2.91L12.94-2.91Q13.04-2.86 13.28-2.77 13.53-2.69 13.79-2.6 14.06-2.51 14.32-2.45 14.58-2.39 14.67-2.37L14.67-2.37 15.19-2.37 17.53-2.49Q18.87-2.49 18.97-1.22L18.97-1.22 18.97-1.17Q18.97-0.95 18.87-0.71 18.77-0.46 18.53-0.26 18.29-0.05 17.9 0.09 17.5 0.22 16.92 0.22L16.92 0.22Q16.41 0.17 16.19 0.05 15.97-0.07 15.67-0.17L15.67-0.17Q15.16-0.34 14.33-0.34L14.33-0.34 13.82-0.34Q13.72-0.34 13.6-0.32 13.48-0.29 13.35-0.24L13.35-0.24Q13.26-0.22 13.15-0.2 13.04-0.17 12.94-0.17L12.94-0.17 10.57-0.29 8.72-0.29Q8.59-0.29 8.35-0.28 8.11-0.27 7.85-0.24 7.59-0.22 7.39-0.21 7.18-0.2 7.1-0.17L7.1-0.17 6.59 0.22Q5.52 0.22 4.49 0.07L4.49 0.07Q3.98-0.05 3.52-0.11 3.05-0.17 2.54-0.17ZM57.35-3.08L57.35-3.2Q57.32-3.22 57.27-3.36 57.22-3.49 57.18-3.64 57.13-3.78 57.09-3.91 57.05-4.03 57.05-4.05L57.05-4.05Q57-4.13 57-4.26 57-4.39 57-4.57L57-4.57Q57-4.71 57-4.86 57-5 57.05-5.08L57.05-5.08Q56.71-5.4 56.65-5.65 56.59-5.91 56.59-6.25L56.59-6.25 56.59-6.76Q56.59-6.81 56.54-6.91 56.49-7.01 56.47-7.06L56.47-7.06Q56.39-7.1 56.19-7.32 55.98-7.54 55.86-7.59L55.86-7.59Q55.66-7.76 55.37-7.81 55.08-7.86 54.86-8.03L54.86-8.03Q54.81-8.03 54.62-8.03 54.44-8.03 54.39-8.06L54.39-8.06Q54.22-8.01 53.99-7.9 53.76-7.79 53.71-7.74L53.71-7.74 53.46-7.59 52.27-7.74 51.68-7.74Q51.36-7.74 51.02-7.62 50.68-7.5 50.35-7.3 50.02-7.1 49.74-6.85 49.46-6.59 49.29-6.32L49.29-6.32Q49.24-6.27 49.19-6.03 49.14-5.79 49.14-5.74L49.14-5.74Q49.09-5.59 49-5.43 48.9-5.27 48.9-5.08L48.9-5.08 48.85-4.47 48.68-3.83 48.9-2.71Q48.9-2.66 48.97-2.59 49.05-2.51 49.14-2.42L49.14-2.42Q49.41-2.15 49.41-2.1L49.41-2.1Q49.41-2.08 49.5-2.05 49.58-2.03 49.68-2 49.78-1.98 49.88-1.97 49.97-1.95 50-1.95L50-1.95Q50.14-1.95 50.39-1.93 50.63-1.9 50.86-1.81 51.1-1.71 51.27-1.55 51.44-1.39 51.44-1.1L51.44-1.1Q51.44-0.81 51.22-0.54 51-0.27 50.68-0.17L50.68-0.17Q50.56-0.15 50.29-0.1 50.02-0.05 49.7 0.02 49.39 0.1 49.09 0.16 48.8 0.22 48.68 0.24L48.68 0.24 48.09 0 44.55 0.24Q44.24 0.2 44 0.15 43.77 0.1 43.59 0 43.41-0.1 43.27-0.27 43.14-0.44 42.99-0.76L42.99-0.76Q42.99-1.2 43.25-1.48 43.5-1.76 43.87-1.95 44.24-2.15 44.63-2.31 45.02-2.47 45.26-2.61L45.26-2.61Q45.26-2.66 45.32-2.7 45.38-2.73 45.43-2.78L45.43-2.78Q45.65-3 45.91-3.3 46.16-3.59 46.29-3.93L46.29-3.93Q46.31-3.96 46.36-4.08 46.41-4.2 46.46-4.35 46.51-4.49 46.54-4.61 46.58-4.74 46.58-4.76L46.58-4.76Q46.85-5.47 47.21-6.04 47.58-6.62 47.85-7.18L47.85-7.18Q47.87-7.2 47.92-7.32 47.97-7.45 48.02-7.59 48.07-7.74 48.11-7.86 48.14-7.98 48.14-8.03L48.14-8.03 48.56-9.77Q48.58-9.79 48.63-9.9 48.68-10.01 48.73-10.13 48.78-10.25 48.81-10.35 48.85-10.45 48.85-10.47L48.85-10.47 49.29-11.91Q49.44-12.45 49.67-12.81 49.9-13.16 50.12-13.65L50.12-13.65 50.24-14.36Q50.29-14.45 50.34-14.69 50.39-14.92 50.41-14.94L50.41-14.94 50.68-15.8Q50.68-15.89 50.72-16.06 50.75-16.24 50.78-16.43 50.8-16.63 50.83-16.81 50.85-16.99 50.85-17.07L50.85-17.07 50.85-18.92Q50.85-18.99 50.91-19.14 50.97-19.29 51.05-19.45 51.12-19.6 51.22-19.74 51.32-19.87 51.44-19.95L51.44-19.95 52.27-20.24Q52.34-20.24 52.5-20.42 52.66-20.61 52.71-20.65L52.71-20.65 53.54-21.04 54.17-21.66Q54.59-21.66 54.87-21.33 55.15-21 55.32-20.65L55.32-20.65Q55.34-20.53 55.43-20.26 55.52-20 55.6-19.69 55.69-19.38 55.77-19.12 55.86-18.85 55.86-18.75L55.86-18.75 55.86-18.04Q55.91-17.99 55.95-17.9 56-17.8 56.03-17.75L56.03-17.75Q56.37-17.19 56.61-16.49 56.86-15.8 57.05-15.09L57.05-15.09Q57.1-14.6 57.11-14.53 57.13-14.45 57.18-14.45L57.18-14.45Q57.39-14.45 57.5-14.25 57.61-14.04 57.74-13.77L57.74-13.77 58.03-12.96Q58.03-12.89 58.1-12.73 58.18-12.57 58.27-12.38 58.37-12.18 58.46-12 58.54-11.82 58.57-11.74L58.57-11.74Q58.59-11.72 58.74-11.52L58.74-11.52Q58.81-11.43 58.86-11.35L58.86-11.35Q58.88-11.3 58.96-11.1 59.03-10.89 59.1-10.64 59.18-10.4 59.24-10.19 59.3-9.99 59.3-9.94L59.3-9.94Q59.42-9.45 59.58-8.95 59.74-8.45 60.01-8.03L60.01-8.03Q60.01-7.96 60.2-7.73 60.4-7.5 60.42-7.42L60.42-7.42 60.57-6.76Q60.67-6.35 60.76-6.08 60.86-5.81 60.89-5.54L60.89-5.54Q60.89-5.47 60.95-5.25 61.01-5.03 61.08-4.77 61.15-4.52 61.22-4.31 61.28-4.1 61.28-4.05L61.28-4.05Q61.33-3.78 61.52-3.47 61.72-3.15 61.91-3.08L61.91-3.08Q61.94-3.05 62.09-2.98 62.25-2.91 62.44-2.82 62.62-2.73 62.78-2.66 62.94-2.59 62.96-2.59L62.96-2.59Q63.25-2.39 63.51-2.31 63.77-2.22 63.94-2.11 64.11-2 64.21-1.81 64.3-1.61 64.3-1.22L64.3-1.22Q64.3-0.85 63.91-0.6 63.52-0.34 63-0.18 62.47-0.02 61.95 0.05 61.42 0.12 61.18 0.12L61.18 0.12Q60.54 0.12 60.02-0.05 59.49-0.22 58.79-0.22L58.79-0.22 56.88 0Q56.64 0 56.27-0.04 55.91-0.07 55.55-0.18 55.2-0.29 54.94-0.49 54.69-0.68 54.69-1.03L54.69-1.03Q54.69-1.49 55.1-1.67 55.52-1.86 56.02-2 56.52-2.15 56.93-2.36 57.35-2.56 57.35-3.08L57.35-3.08ZM52.71-9.5L52.71-9.5Q52.73-9.5 52.89-9.46 53.05-9.42 53.26-9.38 53.46-9.33 53.67-9.28 53.88-9.23 54-9.2L54-9.2 54.56-9.08Q54.59-9.11 54.76-9.13 54.93-9.16 55.12-9.2L55.12-9.2 55.61-9.3 55.15-11.16Q55.1-11.38 55.06-11.76 55.03-12.13 55.03-12.26L55.03-12.26Q55.03-12.57 54.97-12.81 54.9-13.04 54.81-13.26 54.71-13.48 54.59-13.71 54.47-13.94 54.34-14.23L54.34-14.23Q54.29-14.4 54.01-14.62 53.73-14.84 53.54-15.04L53.54-15.04Q53.46-15.11 53.29-15.11L53.29-15.11Q53.07-15.11 52.85-14.94 52.63-14.77 52.37-14.77L52.37-14.77Q52.15-14.77 51.91-14.4 51.68-14.04 51.47-13.56 51.27-13.09 51.13-12.61 51-12.13 50.97-11.91L50.97-11.91 50.97-10.06Q51.02-9.99 51.12-9.77 51.22-9.55 51.27-9.5L51.27-9.5Q51.32-9.45 51.36-9.39 51.41-9.33 51.51-9.33L51.51-9.33Q51.56-9.33 51.74-9.35 51.93-9.38 52.12-9.41 52.32-9.45 52.49-9.47 52.66-9.5 52.71-9.5ZM69.48-10.52L69.48-11.18Q69.43-11.25 69.31-11.47 69.18-11.69 69.18-11.74L69.18-11.74Q69.14-11.84 69.1-12.12 69.06-12.4 69.06-12.45L69.06-12.45Q69.01-12.52 68.82-12.74 68.62-12.96 68.62-13.01L68.62-13.01Q68.6-13.04 68.56-13.16 68.53-13.28 68.49-13.43 68.45-13.57 68.42-13.7 68.38-13.82 68.38-13.84L68.38-13.84Q68.35-13.87 68.29-13.99 68.23-14.11 68.16-14.26 68.09-14.4 68.02-14.53 67.96-14.65 67.96-14.7L67.96-14.7Q67.72-15.09 67.67-15.52 67.62-15.94 67.5-16.36L67.5-16.36Q67.3-17.02 67.12-17.69 66.94-18.36 66.69-18.97L66.69-18.97Q66.65-19.07 66.47-19.14 66.3-19.21 66.25-19.26L66.25-19.26Q65.89-19.41 65.41-19.52 64.94-19.63 64.53-19.8 64.13-19.97 63.85-20.28 63.57-20.58 63.57-21.12L63.57-21.12Q63.57-21.56 63.92-21.78 64.28-22 64.69-22L64.69-22 64.99-22 65.6-21.92 66.23-21.92Q66.45-21.92 66.68-21.89 66.91-21.85 67.11-21.75L67.11-21.75Q67.28-21.75 67.71-21.78 68.13-21.8 68.62-21.8L68.62-21.8Q69.11-21.8 69.53-21.78 69.94-21.75 70.14-21.75L70.14-21.75Q70.16-21.75 70.31-21.74 70.45-21.73 70.62-21.7 70.8-21.68 70.97-21.66 71.14-21.63 71.24-21.63L71.24-21.63Q71.31-21.63 71.53-21.57 71.75-21.51 71.8-21.46L71.8-21.46Q71.97-21.44 72.21-21.44 72.46-21.44 72.68-21.39 72.9-21.34 73.04-21.2 73.19-21.07 73.19-20.83L73.19-20.83Q73.19-20.34 72.93-20.14 72.68-19.95 72.38-19.68L72.38-19.68Q72.26-19.58 72.08-19.4 71.89-19.21 71.7-19.02 71.5-18.82 71.37-18.62 71.24-18.41 71.24-18.29L71.24-18.29Q71.24-17.9 71.45-17.5 71.67-17.11 71.8-16.72L71.8-16.72Q71.87-16.58 71.99-16.31 72.11-16.04 72.22-15.78 72.33-15.53 72.41-15.33 72.48-15.14 72.48-15.11L72.48-15.11Q72.5-15.06 72.53-14.92 72.55-14.77 72.58-14.61 72.6-14.45 72.61-14.31 72.63-14.16 72.65-14.11L72.65-14.11Q72.68-14.06 72.79-13.84 72.9-13.62 72.9-13.55L72.9-13.55Q72.94-13.45 73.07-13.13 73.19-12.82 73.19-12.74L73.19-12.74 73.31-11.91Q73.48-11.35 73.74-10.82 73.99-10.28 74.16-9.67L74.16-9.67Q74.19-9.64 74.23-9.5 74.26-9.35 74.31-9.17 74.36-8.98 74.4-8.81 74.43-8.64 74.46-8.57L74.46-8.57Q74.53-8.3 74.56-8.06 74.58-7.81 74.67-7.62 74.75-7.42 74.92-7.3 75.09-7.18 75.43-7.18L75.43-7.18Q75.7-7.18 75.92-7.2 76.14-7.23 76.41-7.42L76.41-7.42Q76.46-7.54 76.61-7.8 76.75-8.06 76.91-8.35 77.07-8.64 77.2-8.91 77.34-9.18 77.36-9.3L77.36-9.3Q77.39-9.33 77.42-9.55 77.46-9.77 77.51-10.02 77.56-10.28 77.6-10.5 77.63-10.72 77.63-10.77L77.63-10.77Q77.78-11.4 78.13-11.93 78.49-12.45 78.75-13.01L78.75-13.01Q78.75-13.06 78.8-13.22 78.85-13.38 78.9-13.43L78.9-13.43Q78.9-13.45 78.94-13.62 78.97-13.79 79.02-13.99 79.07-14.18 79.12-14.34 79.17-14.5 79.19-14.53L79.19-14.53Q79.19-14.6 79.23-14.71 79.27-14.82 79.32-14.82L79.32-14.82Q79.32-14.87 79.44-14.89 79.56-14.92 79.61-14.94L79.61-14.94Q79.61-14.97 79.62-15.09 79.63-15.21 79.65-15.33 79.66-15.45 79.68-15.55 79.71-15.65 79.73-15.67L79.73-15.67Q79.78-15.97 79.89-16.31 80-16.65 80.12-17.02 80.24-17.38 80.33-17.74 80.41-18.09 80.41-18.38L80.41-18.38Q80.41-18.7 80.39-18.86 80.37-19.02 80.28-19.1 80.2-19.19 80.04-19.24 79.88-19.29 79.61-19.38L79.61-19.38Q79.05-19.58 78.61-19.92 78.17-20.26 78.17-20.87L78.17-20.87Q78.17-21 78.19-21.07L78.19-21.07Q78.19-21.14 78.22-21.19L78.22-21.19Q78.27-21.31 78.52-21.51 78.78-21.7 78.9-21.75L78.9-21.75Q78.93-21.75 79-21.78L79-21.78Q79.05-21.78 79.1-21.79 79.15-21.8 79.19-21.8L79.19-21.8 81-21.63Q81.29-21.63 81.43-21.68 81.56-21.73 81.65-21.78 81.73-21.83 81.82-21.88 81.9-21.92 82.05-21.92L82.05-21.92Q82.27-21.92 82.49-21.8 82.71-21.68 82.91-21.63L82.91-21.63 85.15-21.63Q85.22-21.63 85.36-21.62 85.49-21.61 85.64-21.58 85.79-21.56 85.92-21.52 86.05-21.48 86.1-21.46L86.1-21.46Q86.23-21.41 86.25-21.31 86.27-21.22 86.27-21.12L86.27-21.12 86.27-21Q86.27-20.56 85.94-20.23 85.62-19.9 85.16-19.63 84.71-19.36 84.22-19.12 83.74-18.87 83.44-18.58L83.44-18.58Q83-18.14 82.8-17.53 82.59-16.92 82.39-16.36L82.39-16.36Q82.34-16.31 82.22-16.08 82.1-15.84 82.1-15.8L82.1-15.8 81.98-14.94Q81.9-14.92 81.66-14.81 81.42-14.7 81.39-14.7L81.39-14.7Q81.34-14.67 81.25-14.42 81.15-14.16 81.04-13.85 80.93-13.55 80.82-13.27 80.71-12.99 80.66-12.89L80.66-12.89Q80.63-12.77 80.55-12.5 80.46-12.23 80.41-12.16L80.41-12.16Q80.37-12.13 80.27-11.9 80.17-11.67 80.12-11.62L80.12-11.62 80.02-10.52 79.73-9.96Q79.68-9.94 79.65-9.68 79.61-9.42 79.61-9.38L79.61-9.38Q79.51-9.11 79.32-8.9 79.12-8.69 79.02-8.4L79.02-8.4Q79.02-8.4 79-8.28 78.97-8.15 78.96-8.02 78.95-7.89 78.93-7.75 78.9-7.62 78.9-7.59L78.9-7.59Q78.85-7.57 78.74-7.4 78.63-7.23 78.63-7.18L78.63-7.18Q78.41-6.86 78.38-6.6 78.34-6.35 78.22-5.96L78.22-5.96Q78.19-5.91 78.14-5.81 78.1-5.71 78.05-5.59 78-5.47 77.96-5.37 77.92-5.27 77.92-5.25L77.92-5.25Q77.8-4.96 77.73-4.66 77.66-4.37 77.51-4.1L77.51-4.1Q77.46-4.1 77.35-3.93 77.24-3.76 77.24-3.71L77.24-3.71Q77.22-3.66 77.16-3.48 77.09-3.3 77.02-3.1 76.95-2.91 76.9-2.72 76.85-2.54 76.83-2.49L76.83-2.49Q76.83-2.44 76.68-2.27 76.53-2.1 76.53-2.08L76.53-2.08Q76.48-1.98 76.45-1.89 76.41-1.81 76.41-1.78L76.41-1.78Q76.39-1.73 76.36-1.59 76.34-1.44 76.31-1.27 76.29-1.1 76.28-0.95 76.26-0.81 76.26-0.76L76.26-0.76Q76.24-0.76 76.09-0.57 75.95-0.39 75.9-0.29L75.9-0.29Q75.78-0.05 75.67 0.11 75.56 0.27 75.42 0.38 75.29 0.49 75.09 0.54 74.9 0.59 74.58 0.59L74.58 0.59Q74.26 0.59 73.87 0.39 73.48 0.2 73.31-0.07L73.31-0.07Q73.31-0.12 73.29-0.22 73.26-0.32 73.24-0.44L73.24-0.44Q73.21-0.56 73.19-0.76L73.19-0.76Q73.19-0.81 73.13-0.94 73.07-1.07 72.99-1.22 72.92-1.37 72.85-1.49 72.77-1.61 72.77-1.64L72.77-1.64Q72.6-1.98 72.6-2.2 72.6-2.42 72.48-2.88L72.48-2.88Q72.29-3.81 71.96-4.71 71.63-5.62 71.24-6.47L71.24-6.47 70.82-7.35Q70.82-7.37 70.81-7.5 70.8-7.62 70.77-7.76 70.75-7.91 70.73-8.03 70.72-8.15 70.7-8.2L70.7-8.2 70.65-8.3Q70.62-8.35 70.58-8.4L70.58-8.4Q70.53-8.47 70.36-8.69 70.19-8.91 70.14-8.96L70.14-8.96Q70.04-9.2 70.01-9.44 69.99-9.67 69.95-9.88 69.92-10.08 69.82-10.25 69.72-10.42 69.48-10.52L69.48-10.52ZM88.13-1.05L88.13-1.05Q88.13-1.56 88.37-1.87 88.62-2.17 88.97-2.37 89.32-2.56 89.74-2.75 90.15-2.93 90.51-3.2 90.86-3.47 91.11-3.91 91.35-4.35 91.35-5.08L91.35-5.08Q91.35-5.27 91.35-5.46 91.35-5.64 91.3-5.83L91.3-5.83Q91.23-6.27 91.23-6.76L91.23-6.76Q91.23-7.15 91.3-7.57L91.3-7.57Q91.35-7.76 91.35-7.92 91.35-8.08 91.35-8.28L91.35-8.28Q91.35-8.54 91.33-8.76 91.3-8.98 91.25-9.25L91.25-9.25Q91.23-9.52 91.2-9.81 91.18-10.11 91.18-10.4L91.18-10.4Q91.18-10.67 91.2-10.93 91.23-11.18 91.25-11.45L91.25-11.45Q91.3-11.72 91.35-11.98 91.4-12.23 91.4-12.5L91.4-12.5Q91.4-12.94 91.31-13.39 91.23-13.84 91.13-14.28L91.13-14.28Q91.03-14.65 90.97-15.05 90.91-15.45 90.91-15.84L90.91-15.84Q90.91-15.99 90.93-16.13 90.96-16.26 91.01-16.38L91.01-16.38Q91.08-16.63 91.08-16.89L91.08-16.89Q91.08-16.92 91.07-16.93 91.06-16.94 91.06-16.99L91.06-16.99 91.06-17.07Q91.03-17.14 90.97-17.27 90.91-17.41 90.84-17.54 90.76-17.68 90.7-17.8 90.64-17.92 90.62-17.94L90.62-17.94Q90.52-18.04 90.28-18.3 90.03-18.55 89.76-18.84 89.49-19.12 89.24-19.36 88.98-19.6 88.88-19.68L88.88-19.68Q88.86-19.73 88.8-19.82 88.74-19.92 88.74-19.97L88.74-19.97Q88.74-20.46 89.1-20.87 89.47-21.29 89.86-21.41L89.86-21.41Q90.03-21.48 90.31-21.58 90.59-21.68 90.87-21.77 91.15-21.85 91.37-21.92 91.59-22 91.64-22L91.64-22Q91.69-22 91.89-22.02 92.08-22.05 92.18-22.05L92.18-22.05Q92.52-22.05 92.83-21.97 93.13-21.9 93.45-21.83L93.45-21.83Q93.64-21.8 93.86-21.75 94.08-21.7 94.3-21.7L94.3-21.7Q94.52-21.7 94.69-21.73 94.87-21.75 95.06-21.8L95.06-21.8Q95.23-21.83 95.4-21.85 95.57-21.88 95.77-21.88L95.77-21.88Q96.23-21.88 96.62-21.73 97.01-21.58 97.43-21.58L97.43-21.58Q97.45-21.58 97.6-21.57 97.75-21.56 97.93-21.56 98.11-21.56 98.3-21.55 98.48-21.53 98.6-21.53L98.6-21.53Q99.77-21.53 100.93-21.68 102.09-21.83 103.26-21.88L103.26-21.88Q103.39-21.97 103.47-21.98 103.56-22 103.73-22L103.73-22Q104.36-21.73 104.68-21.29 105-20.85 105.14-20.26L105.14-20.26Q105.14-20.21 105.16-20.07 105.17-19.92 105.19-19.75 105.22-19.58 105.24-19.43 105.27-19.29 105.29-19.26L105.29-19.26Q105.29-19.24 105.31-19.18 105.34-19.12 105.36-18.91 105.39-18.7 105.41-18.33 105.44-17.97 105.46-17.36L105.46-17.36Q105.46-17.04 105.13-16.85 104.8-16.65 104.53-16.65L104.53-16.65Q104.26-16.65 104.09-16.7 103.92-16.75 103.78-16.85 103.63-16.94 103.48-17.08 103.34-17.21 103.12-17.36L103.12-17.36Q103.09-17.36 102.98-17.42 102.87-17.48 102.82-17.53L102.82-17.53Q102.8-17.53 102.6-17.57 102.41-17.6 102.36-17.65L102.36-17.65Q101.87-17.85 101.59-18.2 101.31-18.55 100.92-18.97L100.92-18.97Q100.8-18.97 100.54-18.98 100.29-18.99 99.98-19.02 99.68-19.04 99.41-19.07 99.14-19.09 99.04-19.14L99.04-19.14Q98.99-19.14 98.75-19.26 98.5-19.38 98.43-19.38L98.43-19.38Q98.41-19.43 98.15-19.43 97.89-19.43 97.77-19.43L97.77-19.43Q97.28-19.43 96.94-19.26 96.6-19.09 96.35-18.8 96.11-18.51 95.95-18.13 95.79-17.75 95.7-17.36L95.7-17.36Q95.7-17.31 95.63-17.07 95.57-16.82 95.52-16.72L95.52-16.72Q95.52-16.67 95.56-16.59 95.6-16.5 95.7-16.04L95.7-16.04Q95.7-15.28 95.49-14.54 95.28-13.79 95.28-13.01L95.28-13.01Q95.28-12.79 95.43-12.67 95.57-12.55 95.78-12.5 95.99-12.45 96.22-12.44 96.45-12.43 96.62-12.43L96.62-12.43 97.18-12.43Q97.31-12.43 97.51-12.45 97.72-12.48 97.92-12.5 98.11-12.52 98.27-12.55 98.43-12.57 98.43-12.6L98.43-12.6Q98.45-12.6 98.58-12.68 98.7-12.77 98.83-12.88 98.97-12.99 99.11-13.11 99.26-13.23 99.33-13.31L99.33-13.31Q99.41-13.38 99.52-13.48 99.63-13.57 99.74-13.68 99.85-13.79 99.93-13.89 100.02-13.99 100.04-14.01L100.04-14.01Q100.26-14.31 100.27-14.65 100.29-14.99 100.32-15.27 100.36-15.55 100.53-15.73 100.7-15.92 101.24-15.92L101.24-15.92Q101.95-15.92 102.24-15.48 102.53-15.04 102.53-14.36L102.53-14.36Q102.53-13.94 102.43-13.7 102.34-13.45 102.23-13.26 102.12-13.06 102.03-12.84 101.95-12.62 101.95-12.28L101.95-12.28Q101.95-11.96 102.07-11.76 102.19-11.55 102.24-11.28L102.24-11.28 102.36-9.67Q102.39-9.64 102.42-9.52 102.46-9.4 102.51-9.24 102.56-9.08 102.6-8.92 102.65-8.76 102.65-8.67L102.65-8.67Q102.63-8.54 102.62-8.37 102.6-8.2 102.58-8.03L102.58-8.03Q102.56-7.84 102.53-7.64L102.53-7.64Q102.51-7.57 102.41-7.46 102.31-7.35 102.18-7.24 102.04-7.13 101.9-7.03 101.75-6.93 101.65-6.93L101.65-6.93Q101.56-6.93 101.41-6.95 101.26-6.96 101.24-7.06L101.24-7.06Q101.19-7.1 101.14-7.35 101.09-7.59 101.09-7.64L101.09-7.64Q100.97-7.86 100.77-8.18 100.58-8.5 100.33-8.85 100.09-9.2 99.8-9.55 99.5-9.89 99.21-10.13L99.21-10.13Q98.94-10.33 98.64-10.36 98.33-10.4 98.14-10.4L98.14-10.4 97.18-10.08Q97.14-10.08 96.95-10.16 96.77-10.23 96.7-10.23L96.7-10.23 96.6-10.23Q96.55-10.23 96.53-10.24 96.5-10.25 96.45-10.25L96.45-10.25Q96.33-10.25 96.14-10.11 95.94-9.96 95.76-9.75 95.57-9.55 95.43-9.33 95.28-9.11 95.28-8.96L95.28-8.96Q95.28-8.91 95.26-8.65 95.23-8.4 95.23-8.23L95.23-8.23Q95.23-8.18 95.23-8.08 95.23-7.98 95.26-7.89L95.26-7.89Q95.26-7.79 95.28-7.64L95.28-7.64Q95.28-7.45 95.35-6.95 95.43-6.45 95.52-5.9 95.62-5.35 95.71-4.85 95.79-4.35 95.82-4.15L95.82-4.15Q96.16-3.78 96.31-3.48 96.45-3.17 96.59-2.93 96.72-2.69 96.98-2.55 97.23-2.42 97.8-2.42L97.8-2.42Q98.41-2.42 99-2.54 99.6-2.66 100.21-2.71L100.21-2.71 100.8-2.71Q100.85-2.71 101.08-2.83 101.31-2.95 101.36-3L101.36-3 101.95-3.13Q102.04-3.17 102.2-3.21 102.36-3.25 102.36-3.3L102.36-3.3Q102.43-3.34 102.73-3.58 103.02-3.81 103.12-3.83L103.12-3.83Q103.36-4.03 103.63-4.06 103.9-4.1 104.09-4.3L104.09-4.3Q104.39-4.54 104.67-4.85 104.95-5.15 105.24-5.42 105.53-5.69 105.89-5.86 106.24-6.03 106.68-6.03L106.68-6.03 107.19-6.03Q107.39-5.91 107.44-5.69 107.49-5.47 107.49-5.25L107.49-5.25Q107.49-4.13 106.88-3.13L106.88-3.13Q106.88-3.1 106.79-2.98 106.71-2.86 106.6-2.71 106.49-2.56 106.4-2.43 106.32-2.29 106.29-2.25L106.29-2.25Q106.27-2.22 106.24-2.1 106.22-1.98 106.21-1.83 106.19-1.68 106.17-1.55 106.14-1.42 106.12-1.39L106.12-1.39Q106.12-1.34 106.08-1.25 106.05-1.15 106-1.1L106-1.1Q105.95-1.03 105.82-0.88 105.68-0.73 105.51-0.57 105.34-0.42 105.19-0.27 105.05-0.12 105-0.07L105-0.07 104.78-0.07Q104.34-0.07 103.9 0L103.9 0Q103.39 0.07 102.87 0.07L102.87 0.07Q102.36 0.07 101.95-0.09 101.53-0.24 100.92-0.24L100.92-0.24Q100.8-0.24 100.53-0.23 100.26-0.22 100.21-0.22L100.21-0.22 99.06-0.05Q98.53 0.05 97.97 0.06 97.4 0.07 96.84 0.07L96.84 0.07 95.06 0.07Q94.67 0.07 94.38 0 94.08-0.07 93.74-0.07L93.74-0.07Q93.5-0.07 93.27 0.07 93.03 0.22 92.81 0.22L92.81 0.22 91.47-0.07Q91.45-0.07 91.28-0.04 91.11 0 90.89 0.05 90.67 0.1 90.42 0.15 90.18 0.2 90.03 0.22L90.03 0.22Q89.74 0.22 89.41 0.15 89.08 0.07 88.8-0.09 88.52-0.24 88.32-0.48 88.13-0.71 88.13-1.05ZM110.83-1.27L110.83-1.27Q110.83-1.71 111.05-1.89 111.27-2.08 111.59-2.16 111.9-2.25 112.25-2.29 112.59-2.34 112.86-2.49L112.86-2.49Q113.12-2.64 113.28-2.86 113.44-3.08 113.54-3.33 113.64-3.59 113.71-3.86 113.78-4.13 113.91-4.39L113.91-4.39Q113.95-5.05 113.99-5.7 114.03-6.35 114.03-7.01L114.03-7.01Q114.03-7.5 114-7.96 113.98-8.42 113.95-8.91L113.95-8.91Q114.1-9.13 114.27-9.46 114.44-9.79 114.44-10.18L114.44-10.18Q114.44-10.25 114.41-10.47 114.37-10.69 114.32-10.94 114.27-11.18 114.22-11.39 114.17-11.6 114.15-11.65L114.15-11.65Q114.15-11.69 114.14-11.93 114.13-12.16 114.13-12.38L114.13-12.38Q114.13-12.48 114.14-12.55 114.15-12.62 114.15-12.67L114.15-12.67Q114.15-12.72 114.09-12.93 114.03-13.13 114.03-13.38L114.03-13.38Q114.03-13.45 114.13-13.7 114.22-13.94 114.32-14.11L114.32-14.11Q114.27-14.16 114.24-14.4 114.2-14.65 114.15-14.7L114.15-14.7 114.15-16.14Q114.15-16.19 114.09-16.32 114.03-16.46 113.95-16.6 113.88-16.75 113.82-16.87 113.76-16.99 113.74-17.02L113.74-17.02Q113.61-17.31 113.56-17.61 113.52-17.92 113.45-18.21 113.39-18.51 113.31-18.8 113.22-19.09 113.03-19.34L113.03-19.34Q112.95-19.46 112.67-19.73 112.39-20 112.29-20.07L112.29-20.07Q112.25-20.09 112.25-20.18 112.25-20.26 112.25-20.31L112.25-20.31Q112.25-20.58 112.45-20.76 112.66-20.95 112.93-20.95L112.93-20.95 113.15-20.95Q114.42-20.83 115.62-20.74 116.81-20.65 118.13-20.65L118.13-20.65Q118.4-20.65 118.67-20.78 118.94-20.9 119.28-20.95L119.28-20.95 120.2-21 121.13-20.95Q121.23-20.95 121.44-20.8 121.65-20.65 121.72-20.53L121.72-20.53 121.89-20.36Q121.89-20.31 121.83-20.15 121.77-20 121.72-19.95L121.72-19.95Q121.62-19.82 121.43-19.6 121.23-19.38 121.13-19.34L121.13-19.34Q121.08-19.34 120.94-19.31 120.79-19.29 120.62-19.26 120.45-19.24 120.3-19.23 120.16-19.21 120.11-19.21L120.11-19.21Q119.77-19.14 119.45-18.86 119.13-18.58 118.89-18.21 118.64-17.85 118.48-17.44 118.32-17.04 118.25-16.72L118.25-16.72Q118.15-16.28 118.12-15.82 118.08-15.36 118.08-14.92L118.08-14.92 118.37-12.67Q118.37-12.28 118.29-11.93 118.2-11.57 118.08-11.23L118.08-11.23Q118.08-11.08 118.11-10.68 118.13-10.28 118.13-9.84L118.13-9.84Q118.13-9.4 118.11-9.01 118.08-8.62 118.08-8.45L118.08-8.45Q118.08-8.42 118.06-8.28 118.03-8.13 118.02-7.96 118.01-7.79 117.98-7.63 117.96-7.47 117.96-7.42L117.96-7.42 117.96-7.01Q117.98-6.96 118.07-6.8 118.15-6.64 118.24-6.45 118.32-6.25 118.41-6.08 118.5-5.91 118.5-5.83L118.5-5.83Q118.5-5.74 118.52-5.54 118.54-5.35 118.54-5.15L118.54-5.15Q118.54-4.93 118.52-4.77 118.5-4.61 118.5-4.57L118.5-4.57Q118.62-4.49 118.84-4.26 119.06-4.03 119.11-3.98L119.11-3.98 119.11-3.76Q119.11-3.64 119.08-3.54 119.06-3.44 119.01-3.34L119.01-3.34Q118.96-3.22 118.96-3.13 118.96-3.03 118.96-2.91L118.96-2.91Q118.96-2.71 119.19-2.59 119.42-2.47 119.74-2.37 120.06-2.27 120.36-2.23 120.67-2.2 120.79-2.2L120.79-2.2 121.13-2.2Q121.3-2.22 121.79-2.27 122.28-2.32 122.8-2.36 123.33-2.39 123.81-2.43 124.28-2.47 124.45-2.49L124.45-2.49Q125.5-3.1 126.43-3.89 127.36-4.69 128.14-5.57L128.14-5.57Q128.21-5.64 128.27-5.77 128.33-5.91 128.4-6.02 128.46-6.13 128.55-6.21 128.65-6.3 128.82-6.3L128.82-6.3Q128.97-6.3 129.14-6.16 129.31-6.03 129.45-5.83 129.58-5.64 129.67-5.43 129.75-5.22 129.75-5.08L129.75-5.08Q129.75-4.66 129.67-4.35 129.58-4.03 129.58-3.64L129.58-3.64 129.58-3.37Q129.51-3.3 129.32-3.08 129.14-2.86 128.96-2.6 128.77-2.34 128.62-2.11 128.46-1.88 128.38-1.78L128.38-1.78 128.14-0.93Q128.09-0.88 127.87-0.63 127.65-0.39 127.55-0.34L127.55-0.34Q127.43-0.22 127.27-0.2 127.11-0.17 126.94-0.17L126.94-0.17 126.24-0.17Q126.21-0.2 126.09-0.24 125.97-0.29 125.82-0.34 125.67-0.39 125.54-0.43 125.41-0.46 125.36-0.46L125.36-0.46 123.92-0.46Q123.84-0.46 123.6-0.55 123.35-0.63 123.33-0.63L123.33-0.63Q123.28-0.63 123.12-0.57 122.96-0.51 122.89-0.46L122.89-0.46Q122.79-0.42 122.59-0.32 122.38-0.22 122.3-0.17L122.3-0.17 119.99-0.17Q119.67-0.39 119.3-0.43 118.94-0.46 118.59-0.46L118.59-0.46 118.08-0.46Q117.81-0.46 117.54-0.42 117.28-0.37 116.93-0.17L116.93-0.17Q116.35-0.12 115.75-0.12 115.15-0.12 114.54-0.12L114.54-0.12Q113.93-0.12 113.33-0.12 112.73-0.12 112.12-0.17L112.12-0.17 111.42-0.46Q111.12-0.59 110.98-0.76 110.83-0.93 110.83-1.27ZM132.24-0.71L132.24-0.71Q132.24-1.2 132.56-1.38 132.87-1.56 133.34-1.64 133.8-1.71 134.29-1.76 134.78-1.81 135.12-2.03L135.12-2.03Q135.14-2.05 135.17-2.1L135.17-2.1Q135.24-2.17 135.24-2.2L135.24-2.2Q135.31-2.29 135.45-2.51 135.58-2.73 135.72-2.97 135.85-3.2 135.97-3.41 136.1-3.61 136.12-3.69L136.12-3.69Q136.24-3.88 136.27-4.09 136.29-4.3 136.29-4.74L136.29-4.74Q136.29-5 136.24-5.18 136.19-5.35 136.14-5.49 136.1-5.64 136.05-5.8 136-5.96 136-6.18L136-6.18 136.46-8.62Q136.46-8.72 136.43-8.95 136.39-9.18 136.29-9.77L136.29-9.77 136.29-10.94Q136.24-11.01 136.12-11.34 136-11.67 136-11.87L136-11.87Q136.19-12.48 136.24-13.07 136.29-13.67 136.29-14.31L136.29-14.31 136.29-15.11 136.12-15.87Q136.07-16.16 136.07-16.47 136.07-16.77 136.07-17.07L136.07-17.07Q136.07-17.33 136.07-17.63 136.07-17.92 136.12-18.24L136.12-18.24Q136.07-18.51 135.8-18.76 135.53-19.02 135.41-19.14L135.41-19.14Q134.92-19.48 134.37-19.51 133.83-19.53 133.35-19.58 132.87-19.63 132.56-19.89 132.24-20.14 132.24-20.95L132.24-20.95Q132.24-21.44 132.65-21.59 133.07-21.75 133.46-21.8L133.46-21.8 134.85-21.8Q135.97-21.8 137.06-21.83 138.15-21.85 139.25-21.97L139.25-21.97Q139.42-22.09 139.66-22.12 139.9-22.14 140.17-22.14L140.17-22.14 141.78-22.14Q141.83-22.14 141.97-22.12 142.1-22.09 142.25-22.06 142.39-22.02 142.52-22 142.64-21.97 142.66-21.97L142.66-21.97Q143.01-21.97 143.37-21.91 143.74-21.85 143.74-21.66L143.74-21.66Q143.76-21.53 143.79-21.42 143.81-21.31 143.81-21.19L143.81-21.19Q143.81-21.04 143.79-20.89 143.76-20.73 143.74-20.61L143.74-20.61Q143.69-20.48 143.51-20.37 143.32-20.26 143.1-20.17 142.88-20.07 142.66-20.01 142.44-19.95 142.37-19.9L142.37-19.9 141.49-19.14Q141.3-19.02 141-18.97 140.71-18.92 140.59-18.68L140.59-18.68Q140.56-18.63 140.45-18.41 140.34-18.19 140.3-18.07L140.3-18.07Q140.27-18.02 140.22-17.82L140.22-17.82Q140.2-17.72 140.17-17.65L140.17-17.65 140.17-15.41Q140.17-15.36 140.22-15.15 140.27-14.94 140.3-14.65L140.3-14.65Q140.3-14.6 140.25-14.43 140.2-14.26 140.14-14.06 140.08-13.87 140.04-13.7 140-13.53 140-13.48L140-13.48 140-11.4 139.83-8.62 140.3-6.47 140.3-5.74Q140.3-5.69 140.23-5.42 140.17-5.15 140.17-5.03L140.17-5.03Q140.17-4.96 140.26-4.77 140.34-4.59 140.45-4.39 140.56-4.2 140.66-4.03 140.76-3.86 140.76-3.81L140.76-3.81Q140.83-3.59 140.87-3.28 140.91-2.98 140.99-2.7 141.08-2.42 141.26-2.22 141.44-2.03 141.78-2.03L141.78-2.03Q142.05-2.03 142.25-2.11 142.44-2.2 142.66-2.2L142.66-2.2Q142.83-2.2 143.11-2.15 143.4-2.1 143.66-1.99 143.93-1.88 144.13-1.7 144.32-1.51 144.32-1.27L144.32-1.27Q144.32-0.88 144.14-0.62 143.96-0.37 143.68-0.21 143.4-0.05 143.05 0.01 142.71 0.07 142.42 0.07L142.42 0.07 139.76-0.07 139.07-0.07Q139.03-0.07 138.78 0 138.54 0.07 138.49 0.07L138.49 0.07 136 0.07 134.95 0.22 134.19 0.22Q133.92 0.22 133.59 0.21 133.26 0.2 132.96 0.11 132.65 0.02 132.45-0.17 132.24-0.37 132.24-0.71ZM158.63-0.81L158.63-0.81 158.63-0.93Q158.7-1 159.02-1.14 159.33-1.27 159.77-1.42 160.21-1.56 160.7-1.71 161.19-1.86 161.63-1.98 162.07-2.1 162.37-2.2 162.68-2.29 162.73-2.32L162.73-2.32Q163.17-2.93 163.39-3.58 163.61-4.22 163.7-4.9 163.8-5.57 163.84-6.26 163.87-6.96 163.95-7.69L163.95-7.69Q164.12-8.25 164.23-8.76 164.34-9.28 164.34-9.84L164.34-9.84Q164.34-10.25 164.14-10.57 163.95-10.89 163.95-11.28L163.95-11.28Q163.95-11.91 164.14-12.56 164.34-13.21 164.34-13.77L164.34-13.77Q164.34-13.96 164.31-14.1 164.29-14.23 164.25-14.36 164.22-14.48 164.19-14.6 164.17-14.72 164.17-14.92L164.17-14.92Q164.17-15.16 164.23-15.34 164.29-15.53 164.37-15.69 164.46-15.84 164.52-16 164.58-16.16 164.58-16.36L164.58-16.36 163.95-18.85Q163.95-19.21 164.14-19.47 164.34-19.73 164.34-20.14L164.34-20.14 164.17-20.87 164.17-22.44Q164.17-22.51 164.12-22.64 164.07-22.78 164-22.92 163.92-23.07 163.87-23.19 163.83-23.32 163.83-23.36L163.83-23.36Q163.83-24 163.95-24.49 164.07-24.98 164.07-25.46L164.07-25.46 163.95-29.35Q163.83-29.59 163.68-29.74 163.53-29.88 163.36-29.98 163.19-30.08 162.98-30.19 162.78-30.3 162.56-30.49L162.56-30.49Q162.14-31.1 161.46-31.32 160.77-31.54 160.11-31.68 159.46-31.81 158.98-32.03 158.5-32.25 158.5-32.86L158.5-32.86Q158.5-33.3 158.86-33.53 159.21-33.76 159.7-33.87 160.19-33.98 160.68-34.01 161.16-34.03 161.46-34.03L161.46-34.03 162.34-34.03Q162.78-34.03 163.29-34.02 163.8-34.01 164.25-33.97 164.7-33.94 165.02-33.87 165.34-33.81 165.39-33.74L165.39-33.74 173.27-34.03 175.28-33.91 176.28-34.03Q177.16-33.67 178.01-33.45 178.86-33.23 179.66-32.93 180.45-32.64 181.17-32.19 181.89-31.74 182.48-30.91L182.48-30.91Q183.01-30.13 183.39-29.55 183.77-28.98 184.02-28.41 184.26-27.83 184.37-27.17 184.48-26.51 184.48-25.59L184.48-25.59Q184.48-24.88 184.31-24.01 184.14-23.14 183.8-22.44L183.8-22.44Q183.53-22.02 183.25-21.75 182.97-21.48 182.65-21.26 182.33-21.04 181.98-20.85 181.62-20.65 181.23-20.41L181.23-20.41 180.96-19.9Q180.79-19.68 180.34-19.58 179.89-19.48 179.43-19.36 178.96-19.24 178.6-19.02 178.23-18.8 178.23-18.33L178.23-18.33Q178.23-18.12 178.67-17.94 179.11-17.77 179.68-17.63 180.26-17.48 180.81-17.36 181.35-17.24 181.6-17.14L181.6-17.14Q182.31-16.77 182.86-16.39 183.41-16.02 184.04-15.63L184.04-15.63 184.85-15.09Q185.19-14.43 185.65-13.75 186.12-13.06 186.54-12.34 186.97-11.62 187.26-10.85 187.56-10.08 187.56-9.25L187.56-9.25Q187.56-8.35 187.49-7.54 187.43-6.74 187.09-6.13L187.09-6.13Q186.97-5.91 186.63-5.51 186.29-5.1 185.83-4.6 185.38-4.1 184.86-3.56 184.33-3.03 183.84-2.58 183.36-2.12 182.93-1.79 182.5-1.46 182.23-1.39L182.23-1.39Q181.38-1.39 181.06-1.28 180.74-1.17 180.62-1.17L180.62-1.17Q179.33-0.76 178.28-0.49 177.23-0.22 175.93-0.12L175.93-0.12 174.84 0.24Q174.18 0 173.49 0L173.49 0Q172.66 0 172 0.24L172 0.24Q170.59 0.12 169.22 0.02 167.85-0.07 166.36-0.07L166.36-0.07Q165.19-0.07 163.98 0.16 162.78 0.39 161.46 0.39L161.46 0.39Q161.34 0.39 160.88 0.33 160.43 0.27 159.93 0.12 159.43-0.02 159.03-0.26 158.63-0.49 158.63-0.81ZM169.03-8.28L168.85-7.4 169.2-6.25Q169.27-5.3 169.29-4.77 169.32-4.25 169.43-3.94 169.54-3.64 169.83-3.43 170.12-3.22 170.76-2.91L170.76-2.91Q171-2.78 171.15-2.69 171.3-2.59 171.47-2.49L171.47-2.49Q171.98-2.27 172.46-1.98 172.93-1.68 173.57-1.68L173.57-1.68Q174.03-1.68 174.31-1.83 174.59-1.98 174.98-1.98L174.98-1.98 176.11-1.86Q176.4-1.86 176.75-2 177.11-2.15 177.45-2.37 177.79-2.59 178.1-2.83 178.4-3.08 178.6-3.3L178.6-3.3Q178.72-3.34 178.95-3.55 179.18-3.76 179.43-4 179.67-4.25 179.88-4.48 180.09-4.71 180.21-4.81L180.21-4.81Q180.3-5.15 180.51-5.47 180.72-5.79 180.9-6.12 181.09-6.45 181.23-6.8 181.38-7.15 181.38-7.57L181.38-7.57Q181.38-8.64 181.29-9.73 181.21-10.82 180.94-11.83 180.67-12.84 180.17-13.76 179.67-14.67 178.82-15.38L178.82-15.38Q178.03-15.94 177.29-16.3 176.55-16.65 175.59-16.77L175.59-16.77 174.35-16.77Q173.35-16.87 172.54-17.08 171.74-17.29 170.91-17.29L170.91-17.29 169.49-17.14Q169.44-17.04 169.36-16.86 169.27-16.67 169.18-16.47 169.1-16.26 169.01-16.09 168.93-15.92 168.85-15.84L168.85-15.84Q168.85-15.45 168.94-15.22 169.03-14.99 169.03-14.7L169.03-14.7 168.68-11.28Q168.68-10.62 168.85-9.86 169.03-9.11 169.03-8.28L169.03-8.28ZM169.34-18.58L169.34-18.58 169.66-18.16 171.05-18.63Q171.91-18.73 172.85-18.8 173.79-18.87 174.67-18.87L174.67-18.87Q175.13-18.87 175.3-18.87 175.47-18.87 175.59-18.85L175.59-18.85Q176.3-19.43 176.87-20.18 177.45-20.92 177.9-21.73 178.35-22.53 178.72-23.39 179.08-24.24 179.4-25.05L179.4-25.05 179.4-25.46 179.06-26.1Q178.82-26.98 178.45-27.86 178.08-28.74 177.53-29.47 176.98-30.2 176.24-30.7 175.5-31.2 174.49-31.3L174.49-31.3Q174.45-31.3 174.29-31.32 174.13-31.35 173.96-31.36 173.79-31.37 173.64-31.4 173.49-31.42 173.44-31.42L173.44-31.42Q173.13-31.47 172.85-31.62 172.57-31.76 172.3-31.93 172.03-32.1 171.72-32.23 171.42-32.35 171.08-32.35L171.08-32.35Q170.91-32.35 170.58-32.18 170.25-32.01 169.92-31.75 169.59-31.49 169.33-31.23 169.07-30.96 169.03-30.74L169.03-30.74 169.03-29.74 169.2-27.78Q169.2-27.39 169.11-26.97 169.03-26.54 168.94-26.11 168.85-25.68 168.77-25.28 168.68-24.88 168.68-24.54L168.68-24.54Q168.68-22.95 168.95-21.46 169.22-19.97 169.34-18.58ZM191.14-1.05L191.14-1.05Q191.14-1.1 191.26-1.32 191.39-1.54 191.44-1.61L191.44-1.61Q191.78-2.05 192.36-2.23 192.95-2.42 193.51-2.42L193.51-2.42Q193.68-2.42 193.82-2.42 193.95-2.42 194.1-2.37L194.1-2.37Q194.36-2.56 194.55-2.83 194.73-3.1 194.85-3.42L194.85-3.42Q194.83-3.52 194.8-3.75 194.78-3.98 194.78-4.27L194.78-4.27Q194.78-4.54 194.8-4.8 194.83-5.05 194.85-5.15L194.85-5.15Q194.9-5.54 195.1-5.86 195.29-6.18 195.29-6.59L195.29-6.59 195.29-6.81 195-7.4 195-8.11Q194.93-8.76 194.8-9.44 194.68-10.11 194.68-10.82L194.68-10.82 195-12.6 194.95-13.53Q194.95-13.62 194.95-13.73 194.95-13.84 195-13.94L195-13.94Q195.05-14.33 195.08-14.72 195.12-15.11 195.12-15.5L195.12-15.5Q195.12-15.89 195.08-16.27 195.05-16.65 195-17.07L195-17.07Q194.95-17.33 194.96-17.64 194.98-17.94 194.85-18.21L194.85-18.21Q194.66-18.58 194.39-18.91 194.12-19.24 193.8-19.48L193.8-19.48Q193.51-19.73 193.17-19.79 192.83-19.85 192.47-19.89 192.12-19.92 191.81-20.04 191.51-20.17 191.31-20.53L191.31-20.53Q191.29-20.56 191.29-20.61L191.29-20.61Q191.26-20.63 191.26-20.7L191.26-20.7Q191.26-20.92 191.4-21.06 191.53-21.19 191.72-21.26 191.9-21.34 192.12-21.36 192.34-21.39 192.48-21.41L192.48-21.41 193.51-21.41Q193.85-21.46 194.23-21.61 194.61-21.75 195-21.75L195-21.75Q195.05-21.75 195.17-21.75 195.29-21.75 195.29-21.7L195.29-21.7Q195.32-21.7 195.56-21.56 195.81-21.41 195.88-21.41L195.88-21.41 196.88-21.41 198.49-21.29Q198.54-21.24 198.7-21.24 198.86-21.24 198.91-21.24L198.91-21.24Q199.3-21.24 199.55-21.33 199.81-21.41 200.22-21.41L200.22-21.41Q201.1-21.41 202.03-21.34 202.96-21.26 203.86-21L203.86-21Q204.45-20.83 204.98-20.72 205.52-20.61 206-20.45 206.47-20.29 206.9-20.01 207.33-19.73 207.69-19.21L207.69-19.21Q207.99-18.77 208.17-18.49 208.35-18.21 208.45-17.93 208.55-17.65 208.57-17.3 208.6-16.94 208.6-16.38L208.6-16.38Q208.6-15.89 208.46-15.44 208.33-14.99 207.96-14.62L207.96-14.62Q207.89-14.55 207.69-14.33 207.5-14.11 207.26-13.88 207.01-13.65 206.8-13.43 206.6-13.21 206.52-13.13L206.52-13.13Q206.43-13.13 206.19-13.09 205.96-13.04 205.94-12.96L205.94-12.96Q205.89-12.94 205.71-12.85 205.52-12.77 205.31-12.68 205.11-12.6 204.94-12.51 204.77-12.43 204.74-12.43L204.74-12.43Q204.62-12.38 204.46-12.35 204.3-12.33 204.15-12.29 204.01-12.26 203.91-12.17 203.81-12.08 203.81-11.91L203.81-11.91Q203.81-11.6 203.91-11.24 204.01-10.89 204.17-10.56 204.33-10.23 204.55-9.94 204.77-9.64 205.01-9.47L205.01-9.47Q205.06-9.42 205.24-9.29 205.42-9.16 205.47-9.16L205.47-9.16 205.62-8.98Q205.67-8.96 205.85-8.7 206.03-8.45 206.11-8.4L206.11-8.4Q206.11-8.4 206.21-8.29 206.3-8.18 206.43-8.06 206.55-7.93 206.66-7.81 206.77-7.69 206.82-7.64L206.82-7.64Q206.84-7.59 206.96-7.34 207.08-7.08 207.23-6.79 207.38-6.49 207.51-6.24 207.65-5.98 207.69-5.91L207.69-5.91Q207.72-5.86 207.84-5.69 207.96-5.52 208.12-5.3 208.28-5.08 208.45-4.87 208.62-4.66 208.72-4.57L208.72-4.57Q208.99-4.25 209.28-4.03 209.57-3.81 209.89-3.54L209.89-3.54 211.09-2.66 212.6-2.49Q212.7-2.47 212.92-2.37 213.14-2.27 213.35-2.11 213.55-1.95 213.71-1.77 213.87-1.59 213.87-1.39L213.87-1.39Q213.87-1.29 213.75-1.06 213.63-0.83 213.44-0.6 213.26-0.37 213.05-0.18 212.85 0 212.68 0L212.68 0 210.65 0Q210.38-0.22 209.87-0.32 209.36-0.42 209.01-0.46L209.01-0.46 207.23-0.46Q206.25-0.81 205.79-1.48 205.33-2.15 205.01-3.08L205.01-3.08Q205.01-3.13 204.92-3.31 204.84-3.49 204.57-3.83L204.57-3.83 204.4-4.57Q204.4-4.61 204.36-4.71 204.33-4.81 204.28-4.86L204.28-4.86Q204.13-5.08 203.87-5.46 203.62-5.83 203.36-6.23 203.11-6.62 202.9-6.9 202.69-7.18 202.67-7.23L202.67-7.23 200.91-9.16Q200.57-9.5 200.13-9.72 199.69-9.94 199.25-9.94L199.25-9.94Q199.15-9.94 199.08-9.91 199-9.89 198.95-9.77L198.95-9.77Q198.95-9.69 198.98-9.56 199-9.42 199-9.25L199-9.25Q199-9.08 198.98-8.94 198.95-8.79 198.95-8.74L198.95-8.74 198.83-8.11 198.83-6.37Q198.83-6.32 198.77-6.05 198.71-5.79 198.66-5.66L198.66-5.66Q198.66-5.15 198.8-4.82 198.93-4.49 199.13-4L199.13-4 198.95-3.25Q198.95-2.81 199.28-2.71 199.61-2.61 199.99-2.56 200.37-2.51 200.7-2.32 201.03-2.12 201.03-1.51L201.03-1.51Q201.03-1.15 200.82-0.96 200.61-0.78 200.32-0.71 200.03-0.63 199.7-0.62 199.37-0.61 199.13-0.59L199.13-0.59 196.29-0.59Q196.17-0.56 195.84-0.52 195.51-0.49 195.13-0.45 194.76-0.42 194.41-0.37 194.07-0.32 193.93-0.29L193.93-0.29Q193.66-0.1 193.52-0.05 193.39 0 193.17 0L193.17 0Q192.78 0 192.55-0.15 192.31-0.29 192.02-0.46L192.02-0.46Q192-0.46 191.8-0.5 191.61-0.54 191.56-0.59L191.56-0.59Q191.46-0.66 191.3-0.84 191.14-1.03 191.14-1.05ZM198.37-14.77L198.37-14.62Q198.42-14.55 198.45-14.31 198.49-14.06 198.49-14.01L198.49-14.01Q198.56-13.79 198.59-13.53 198.61-13.26 198.66-12.99 198.71-12.72 198.81-12.5 198.91-12.28 199.13-12.13L199.13-12.13Q199.56-11.79 199.92-11.66 200.27-11.52 200.91-11.52L200.91-11.52Q200.96-11.52 201.12-11.58 201.27-11.65 201.32-11.65L201.32-11.65 202.67-12.55Q202.81-12.65 203.03-12.73 203.25-12.82 203.45-12.94 203.64-13.06 203.8-13.21 203.96-13.35 203.98-13.55L203.98-13.55Q203.98-13.6 204.01-13.79 204.03-13.99 204.06-14.22 204.08-14.45 204.11-14.7 204.13-14.94 204.15-15.09L204.15-15.09 204.15-15.26Q204.15-16.36 203.75-17.41 203.35-18.46 202.49-19.21L202.49-19.21Q202.23-19.48 201.95-19.71 201.66-19.95 201.25-19.95L201.25-19.95 200.91-19.95 199.42-19.8Q198.78-19.36 198.64-18.79 198.49-18.21 198.49-17.48L198.49-17.48 198.49-15.67Q198.49-15.6 198.45-15.27 198.42-14.94 198.37-14.77L198.37-14.77ZM215.82-1.05L215.82-1.05Q215.82-1.56 216.07-1.87 216.31-2.17 216.66-2.37 217.02-2.56 217.43-2.75 217.85-2.93 218.2-3.2 218.56-3.47 218.8-3.91 219.04-4.35 219.04-5.08L219.04-5.08Q219.04-5.27 219.04-5.46 219.04-5.64 219-5.83L219-5.83Q218.92-6.27 218.92-6.76L218.92-6.76Q218.92-7.15 219-7.57L219-7.57Q219.04-7.76 219.04-7.92 219.04-8.08 219.04-8.28L219.04-8.28Q219.04-8.54 219.02-8.76 219-8.98 218.95-9.25L218.95-9.25Q218.92-9.52 218.9-9.81 218.87-10.11 218.87-10.4L218.87-10.4Q218.87-10.67 218.9-10.93 218.92-11.18 218.95-11.45L218.95-11.45Q219-11.72 219.04-11.98 219.09-12.23 219.09-12.5L219.09-12.5Q219.09-12.94 219.01-13.39 218.92-13.84 218.83-14.28L218.83-14.28Q218.73-14.65 218.67-15.05 218.61-15.45 218.61-15.84L218.61-15.84Q218.61-15.99 218.63-16.13 218.65-16.26 218.7-16.38L218.7-16.38Q218.78-16.63 218.78-16.89L218.78-16.89Q218.78-16.92 218.76-16.93 218.75-16.94 218.75-16.99L218.75-16.99 218.75-17.07Q218.73-17.14 218.67-17.27 218.61-17.41 218.53-17.54 218.46-17.68 218.4-17.8 218.34-17.92 218.31-17.94L218.31-17.94Q218.21-18.04 217.97-18.3 217.73-18.55 217.46-18.84 217.19-19.12 216.93-19.36 216.68-19.6 216.58-19.68L216.58-19.68Q216.55-19.73 216.49-19.82 216.43-19.92 216.43-19.97L216.43-19.97Q216.43-20.46 216.8-20.87 217.17-21.29 217.56-21.41L217.56-21.41Q217.73-21.48 218.01-21.58 218.29-21.68 218.57-21.77 218.85-21.85 219.07-21.92 219.29-22 219.34-22L219.34-22Q219.39-22 219.58-22.02 219.78-22.05 219.87-22.05L219.87-22.05Q220.22-22.05 220.52-21.97 220.83-21.9 221.14-21.83L221.14-21.83Q221.34-21.8 221.56-21.75 221.78-21.7 222-21.7L222-21.7Q222.22-21.7 222.39-21.73 222.56-21.75 222.76-21.8L222.76-21.8Q222.93-21.83 223.1-21.85 223.27-21.88 223.46-21.88L223.46-21.88Q223.93-21.88 224.32-21.73 224.71-21.58 225.12-21.58L225.12-21.58Q225.15-21.58 225.29-21.57 225.44-21.56 225.62-21.56 225.81-21.56 225.99-21.55 226.17-21.53 226.3-21.53L226.3-21.53Q227.47-21.53 228.63-21.68 229.79-21.83 230.96-21.88L230.96-21.88Q231.08-21.97 231.17-21.98 231.25-22 231.42-22L231.42-22Q232.06-21.73 232.37-21.29 232.69-20.85 232.84-20.26L232.84-20.26Q232.84-20.21 232.85-20.07 232.86-19.92 232.89-19.75 232.91-19.58 232.94-19.43 232.96-19.29 232.99-19.26L232.99-19.26Q232.99-19.24 233.01-19.18 233.03-19.12 233.06-18.91 233.08-18.7 233.11-18.33 233.13-17.97 233.16-17.36L233.16-17.36Q233.16-17.04 232.83-16.85 232.5-16.65 232.23-16.65L232.23-16.65Q231.96-16.65 231.79-16.7 231.62-16.75 231.47-16.85 231.33-16.94 231.18-17.08 231.03-17.21 230.81-17.36L230.81-17.36Q230.79-17.36 230.68-17.42 230.57-17.48 230.52-17.53L230.52-17.53Q230.5-17.53 230.3-17.57 230.1-17.6 230.06-17.65L230.06-17.65Q229.57-17.85 229.29-18.2 229.01-18.55 228.62-18.97L228.62-18.97Q228.49-18.97 228.24-18.98 227.98-18.99 227.68-19.02 227.37-19.04 227.1-19.07 226.83-19.09 226.74-19.14L226.74-19.14Q226.69-19.14 226.44-19.26 226.2-19.38 226.12-19.38L226.12-19.38Q226.1-19.43 225.84-19.43 225.59-19.43 225.47-19.43L225.47-19.43Q224.98-19.43 224.64-19.26 224.29-19.09 224.05-18.8 223.81-18.51 223.65-18.13 223.49-17.75 223.39-17.36L223.39-17.36Q223.39-17.31 223.33-17.07 223.27-16.82 223.22-16.72L223.22-16.72Q223.22-16.67 223.26-16.59 223.29-16.5 223.39-16.04L223.39-16.04Q223.39-15.28 223.18-14.54 222.98-13.79 222.98-13.01L222.98-13.01Q222.98-12.79 223.12-12.67 223.27-12.55 223.48-12.5 223.68-12.45 223.92-12.44 224.15-12.43 224.32-12.43L224.32-12.43 224.88-12.43Q225-12.43 225.21-12.45 225.42-12.48 225.61-12.5 225.81-12.52 225.97-12.55 226.12-12.57 226.12-12.6L226.12-12.6Q226.15-12.6 226.27-12.68 226.39-12.77 226.53-12.88 226.66-12.99 226.81-13.11 226.96-13.23 227.03-13.31L227.03-13.31Q227.1-13.38 227.21-13.48 227.32-13.57 227.43-13.68 227.54-13.79 227.63-13.89 227.71-13.99 227.74-14.01L227.74-14.01Q227.96-14.31 227.97-14.65 227.98-14.99 228.02-15.27 228.05-15.55 228.22-15.73 228.4-15.92 228.93-15.92L228.93-15.92Q229.64-15.92 229.93-15.48 230.23-15.04 230.23-14.36L230.23-14.36Q230.23-13.94 230.13-13.7 230.03-13.45 229.92-13.26 229.81-13.06 229.73-12.84 229.64-12.62 229.64-12.28L229.64-12.28Q229.64-11.96 229.76-11.76 229.88-11.55 229.93-11.28L229.93-11.28 230.06-9.67Q230.08-9.64 230.12-9.52 230.15-9.4 230.2-9.24 230.25-9.08 230.3-8.92 230.35-8.76 230.35-8.67L230.35-8.67Q230.32-8.54 230.31-8.37 230.3-8.2 230.28-8.03L230.28-8.03Q230.25-7.84 230.23-7.64L230.23-7.64Q230.2-7.57 230.1-7.46 230.01-7.35 229.87-7.24 229.74-7.13 229.59-7.03 229.45-6.93 229.35-6.93L229.35-6.93Q229.25-6.93 229.1-6.95 228.96-6.96 228.93-7.06L228.93-7.06Q228.88-7.1 228.83-7.35 228.79-7.59 228.79-7.64L228.79-7.64Q228.66-7.86 228.47-8.18 228.27-8.5 228.03-8.85 227.79-9.2 227.49-9.55 227.2-9.89 226.91-10.13L226.91-10.13Q226.64-10.33 226.33-10.36 226.03-10.4 225.83-10.4L225.83-10.4 224.88-10.08Q224.83-10.08 224.65-10.16 224.46-10.23 224.39-10.23L224.39-10.23 224.29-10.23Q224.25-10.23 224.22-10.24 224.2-10.25 224.15-10.25L224.15-10.25Q224.03-10.25 223.83-10.11 223.63-9.96 223.45-9.75 223.27-9.55 223.12-9.33 222.98-9.11 222.98-8.96L222.98-8.96Q222.98-8.91 222.95-8.65 222.93-8.4 222.93-8.23L222.93-8.23Q222.93-8.18 222.93-8.08 222.93-7.98 222.95-7.89L222.95-7.89Q222.95-7.79 222.98-7.64L222.98-7.64Q222.98-7.45 223.05-6.95 223.12-6.45 223.22-5.9 223.32-5.35 223.4-4.85 223.49-4.35 223.51-4.15L223.51-4.15Q223.85-3.78 224-3.48 224.15-3.17 224.28-2.93 224.42-2.69 224.67-2.55 224.93-2.42 225.49-2.42L225.49-2.42Q226.1-2.42 226.7-2.54 227.3-2.66 227.91-2.71L227.91-2.71 228.49-2.71Q228.54-2.71 228.77-2.83 229.01-2.95 229.05-3L229.05-3 229.64-3.13Q229.74-3.17 229.9-3.21 230.06-3.25 230.06-3.3L230.06-3.3Q230.13-3.34 230.42-3.58 230.71-3.81 230.81-3.83L230.81-3.83Q231.06-4.03 231.33-4.06 231.59-4.1 231.79-4.3L231.79-4.3Q232.08-4.54 232.36-4.85 232.64-5.15 232.94-5.42 233.23-5.69 233.58-5.86 233.94-6.03 234.38-6.03L234.38-6.03 234.89-6.03Q235.08-5.91 235.13-5.69 235.18-5.47 235.18-5.25L235.18-5.25Q235.18-4.13 234.57-3.13L234.57-3.13Q234.57-3.1 234.49-2.98 234.4-2.86 234.29-2.71 234.18-2.56 234.1-2.43 234.01-2.29 233.99-2.25L233.99-2.25Q233.96-2.22 233.94-2.1 233.91-1.98 233.9-1.83 233.89-1.68 233.86-1.55 233.84-1.42 233.82-1.39L233.82-1.39Q233.82-1.34 233.78-1.25 233.74-1.15 233.69-1.1L233.69-1.1Q233.64-1.03 233.51-0.88 233.38-0.73 233.21-0.57 233.03-0.42 232.89-0.27 232.74-0.12 232.69-0.07L232.69-0.07 232.47-0.07Q232.03-0.07 231.59 0L231.59 0Q231.08 0.07 230.57 0.07L230.57 0.07Q230.06 0.07 229.64-0.09 229.23-0.24 228.62-0.24L228.62-0.24Q228.49-0.24 228.22-0.23 227.96-0.22 227.91-0.22L227.91-0.22 226.76-0.05Q226.22 0.05 225.66 0.06 225.1 0.07 224.54 0.07L224.54 0.07 222.76 0.07Q222.37 0.07 222.07 0 221.78-0.07 221.44-0.07L221.44-0.07Q221.19-0.07 220.96 0.07 220.73 0.22 220.51 0.22L220.51 0.22 219.17-0.07Q219.14-0.07 218.97-0.04 218.8 0 218.58 0.05 218.36 0.1 218.12 0.15 217.87 0.2 217.73 0.22L217.73 0.22Q217.43 0.22 217.1 0.15 216.77 0.07 216.49-0.09 216.21-0.24 216.02-0.48 215.82-0.71 215.82-1.05ZM245.31-1.15L244.97-3.81Q244.46-4.57 244.29-5.27 244.12-5.98 243.99-6.68 243.87-7.37 243.68-8.04 243.48-8.72 242.94-9.42L242.94-9.42 242.48-11.35 242.48-12.26Q242.48-12.26 242.41-12.39 242.33-12.52 242.24-12.7 242.14-12.87 242.04-13.02 241.94-13.18 241.89-13.26L241.89-13.26 241.43-13.84 241.43-15.04Q241.43-15.11 241.34-15.27 241.26-15.43 241.16-15.6 241.06-15.77 240.98-15.92 240.89-16.06 240.89-16.09L240.89-16.09Q240.53-16.65 240.36-17.36 240.18-18.07 239.92-18.63L239.92-18.63Q239.79-18.92 239.68-19.08 239.57-19.24 239.38-19.31 239.18-19.38 238.87-19.42 238.55-19.46 238.01-19.56L238.01-19.56Q237.67-19.6 237.4-19.75 237.13-19.9 237.13-20.24L237.13-20.24Q237.13-20.73 237.33-21.06 237.52-21.39 237.72-21.7L237.72-21.7 238.94-21.92 239.4-21.92Q240.06-21.7 240.8-21.56 241.53-21.41 242.24-21.41L242.24-21.41Q242.8-21.41 243.25-21.58 243.7-21.75 244.21-21.75L244.21-21.75Q244.29-21.75 244.46-21.74 244.63-21.73 244.84-21.7 245.04-21.68 245.2-21.66 245.36-21.63 245.41-21.63L245.41-21.63Q245.65-21.44 245.97-21.33 246.29-21.22 246.29-20.87L246.29-20.87Q246.29-20.58 246.18-20.23 246.07-19.87 245.87-19.6L245.87-19.6Q245.7-19.41 245.32-19.23 244.95-19.04 244.85-18.87L244.85-18.87 244.9-18.12Q244.92-17.85 244.98-17.47 245.04-17.09 245.12-16.72 245.19-16.36 245.26-16.03 245.34-15.7 245.41-15.55L245.41-15.55 245.9-15.04Q246.12-14.6 246.23-14.11 246.34-13.62 246.42-13.12 246.51-12.62 246.57-12.12 246.63-11.62 246.75-11.18L246.75-11.18 247.51-9.84Q247.58-9.67 247.63-9.36 247.68-9.06 247.75-8.76 247.83-8.47 247.96-8.26 248.1-8.06 248.36-8.06L248.36-8.06Q248.63-8.06 248.83-8.26 249.02-8.47 249.18-8.75 249.34-9.03 249.45-9.31 249.56-9.59 249.63-9.72L249.63-9.72Q249.63-9.77 249.83-9.95 250.02-10.13 250.1-10.18L250.1-10.18Q250.39-10.55 250.5-11.05 250.61-11.55 250.72-12.05 250.83-12.55 251.01-12.99 251.2-13.43 251.68-13.72L251.68-13.72 251.73-14.7Q251.73-14.89 251.71-15.26 251.68-15.63 251.68-15.67L251.68-15.67 251.39-16.38Q251.29-16.65 251.28-16.92 251.27-17.19 251.22-17.53L251.22-17.53Q251.2-17.75 251.16-18.02 251.12-18.29 251.05-18.51L251.05-18.51Q250.85-18.95 250.52-19.06 250.19-19.17 249.83-19.25 249.46-19.34 249.12-19.53 248.78-19.73 248.56-20.36L248.56-20.36 248.56-20.58Q248.56-20.8 248.61-21.06 248.66-21.31 248.78-21.36L248.78-21.36Q249.05-21.53 249.49-21.56 249.93-21.58 250.34-21.58L250.34-21.58 251.1-21.58Q251.12-21.58 251.29-21.53 251.46-21.48 251.68-21.44 251.9-21.39 252.12-21.34 252.34-21.29 252.49-21.29L252.49-21.29 254.35-21.75 256.35-21.41Q256.57-21.41 256.77-21.5 256.98-21.58 257.27-21.58L257.27-21.58Q257.84-21.58 258.17-21.34 258.5-21.09 258.5-20.48L258.5-20.48Q258.5-19.87 258.1-19.65 257.71-19.43 257.18-19.35 256.64-19.26 256.08-19.21 255.52-19.17 255.2-18.87L255.2-18.87 255.2-18.53Q255.2-18.29 255.29-18.14 255.37-17.99 255.48-17.86 255.59-17.72 255.69-17.57 255.79-17.41 255.83-17.14L255.83-17.14 255.83-15.67Q255.83-15.58 255.99-15.01 256.15-14.45 256.37-13.67 256.59-12.89 256.85-11.99 257.1-11.08 257.34-10.33 257.57-9.57 257.73-9.06 257.89-8.54 257.91-8.52L257.91-8.52Q258.03-8.4 258.1-8.39 258.18-8.37 258.28-8.37L258.28-8.37Q258.45-8.37 258.56-8.39 258.67-8.4 258.84-8.52L258.84-8.52Q258.84-8.57 258.87-8.67 258.91-8.76 258.96-8.86L258.96-8.86Q259.13-9.33 259.39-9.78 259.64-10.23 259.92-10.68 260.2-11.13 260.45-11.57 260.69-12.01 260.86-12.5L260.86-12.5Q260.89-12.52 260.9-12.65 260.91-12.77 260.94-12.89 260.96-13.01 260.97-13.12 260.99-13.23 260.99-13.26L260.99-13.26Q261.21-13.82 261.39-14.18 261.57-14.55 261.69-15.04L261.69-15.04 261.84-16.09Q261.99-16.36 262.17-16.63 262.35-16.89 262.52-17.18 262.69-17.46 262.82-17.76 262.94-18.07 262.94-18.41L262.94-18.41Q262.89-18.95 262.62-19.2 262.35-19.46 262-19.59 261.64-19.73 261.29-19.82 260.94-19.92 260.77-20.14L260.77-20.14 260.64-20.65Q260.64-21.04 261.03-21.41L261.03-21.41Q261.06-21.51 261.19-21.57 261.33-21.63 261.86-21.63L261.86-21.63Q262.06-21.63 262.18-21.63 262.3-21.63 262.44-21.62 262.57-21.61 262.73-21.58 262.89-21.56 263.13-21.53L263.13-21.53Q263.92-21.53 264.44-21.59 264.97-21.66 265.45-21.7L265.45-21.7Q265.58-21.7 265.89-21.67 266.21-21.63 266.26-21.63L266.26-21.63 267.48-21.66Q267.92-21.66 268.04-21.53L268.04-21.53Q268.14-21.41 268.26-21.39 268.38-21.36 268.41-21.19L268.41-21.19 268.41-20.95Q268.41-20.51 268.3-20.26 268.19-20.02 268.09-19.9L268.09-19.9Q267.92-19.73 267.53-19.58 267.14-19.43 266.7-19.27 266.26-19.12 265.87-18.91 265.48-18.7 265.28-18.38L265.28-18.38Q264.82-17.7 264.51-17.07 264.21-16.43 263.94-15.8 263.67-15.16 263.4-14.53 263.13-13.89 262.77-13.21L262.77-13.21Q262.55-12.82 262.34-12.45 262.13-12.08 261.96-11.72 261.79-11.35 261.68-10.95 261.57-10.55 261.57-10.06L261.57-10.06 261.23-9.62Q261.23-9.47 261.18-9.24 261.13-9.01 261.06-8.75 260.99-8.5 260.89-8.29 260.79-8.08 260.69-7.98L260.69-7.98 260.35-7.13 259.59-5.54Q259.37-5.05 259.26-4.72 259.15-4.39 259.04-4.1 258.93-3.81 258.78-3.49 258.62-3.17 258.28-2.73L258.28-2.73Q258.03-2.37 257.96-2.01 257.89-1.66 257.78-1.39 257.67-1.12 257.42-0.96 257.18-0.81 256.64-0.81L256.64-0.81Q256.2-0.81 255.99-0.88 255.79-0.95 255.65-1.1 255.52-1.25 255.41-1.46 255.3-1.68 255.08-1.98L255.08-1.98Q255.13-2.15 255.13-2.31 255.13-2.47 255.13-2.61L255.13-2.61Q255.13-3.15 255-3.63 254.88-4.1 254.72-4.57 254.56-5.03 254.42-5.51 254.27-5.98 254.22-6.49L254.22-6.49 254.05-8.23Q254-8.47 253.82-8.97 253.64-9.47 253.39-9.97 253.15-10.47 252.89-10.85 252.64-11.23 252.47-11.23L252.47-11.23Q252.2-11.23 251.98-11.08 251.76-10.94 251.68-10.77L251.68-10.77Q251.68-10.74 251.64-10.63 251.59-10.52 251.53-10.4 251.46-10.28 251.43-10.17 251.39-10.06 251.39-10.01L251.39-10.01Q251.12-8.96 250.72-8.18 250.32-7.4 249.88-6.49L249.88-6.49 249.46-5.86Q249.46-5.83 249.41-5.7 249.36-5.57 249.34-5.54L249.34-5.54Q249.34-5.49 249.32-5.35 249.29-5.2 249.25-5.03 249.22-4.86 249.18-4.7 249.14-4.54 249.12-4.52L249.12-4.52Q249.12-4.47 248.93-4.22 248.73-3.98 248.71-3.93L248.71-3.93Q248.49-3.42 248.4-2.8 248.31-2.17 248.13-1.64 247.95-1.1 247.56-0.74 247.17-0.39 246.34-0.39L246.34-0.39Q245.95-0.39 245.67-0.49 245.39-0.59 245.31-1.15L245.31-1.15ZM269.65-3L269.65-3.47Q269.65-3.69 269.67-3.92 269.7-4.15 269.77-4.36 269.85-4.57 269.98-4.69 270.11-4.81 270.33-4.81L270.33-4.81 270.53-4.81Q270.94-4.66 271.25-4.36 271.55-4.05 271.73-3.64L271.73-3.64 271.85-3.05Q271.9-3 272.01-2.89 272.12-2.78 272.19-2.73L272.19-2.73 272.43-2.59Q272.48-2.54 272.6-2.28 272.73-2.03 272.78-1.98L272.78-1.98Q272.82-1.95 272.92-1.84 273.02-1.73 273.07-1.68L273.07-1.68Q273.19-1.73 273.32-1.73 273.46-1.73 273.58-1.73L273.58-1.73Q273.85-1.73 274.15-1.66 274.46-1.59 274.68-1.39L274.68-1.39Q274.95-1.34 275.22-1.31 275.49-1.27 275.78-1.27L275.78-1.27Q276.05-1.27 276.34-1.31 276.63-1.34 276.93-1.39L276.93-1.39Q277.17-1.44 277.52-1.83 277.88-2.22 278.2-2.72 278.51-3.22 278.74-3.7 278.98-4.17 278.98-4.39L278.98-4.39 278.98-4.69Q278.98-4.79 278.95-4.99 278.93-5.2 278.92-5.42 278.9-5.64 278.88-5.8 278.85-5.96 278.85-6.01L278.85-6.01Q278.81-6.03 278.68-6.21 278.56-6.4 278.56-6.47L278.56-6.47Q278.46-6.62 278.41-6.81 278.37-7.01 278.29-7.19 278.22-7.37 278.11-7.52 278-7.67 277.8-7.76L277.8-7.76Q277.76-7.81 277.57-7.86 277.39-7.91 277.39-7.93L277.39-7.93Q277.34-7.93 277.15-8.13 276.95-8.33 276.93-8.37L276.93-8.37Q276.88-8.42 276.75-8.51 276.63-8.59 276.49-8.68 276.34-8.76 276.22-8.84 276.1-8.91 276.02-8.96L276.02-8.96Q276-8.98 275.86-9.06 275.73-9.13 275.58-9.2 275.44-9.28 275.3-9.34 275.17-9.4 275.14-9.42L275.14-9.42Q275.07-9.47 274.83-9.66 274.58-9.84 274.56-9.89L274.56-9.89Q274.04-10.23 273.67-10.41 273.29-10.6 272.97-10.78 272.65-10.96 272.36-11.24 272.07-11.52 271.73-12.08L271.73-12.08Q271.65-12.23 271.51-12.46 271.36-12.7 271.21-12.93 271.07-13.16 270.96-13.35 270.85-13.55 270.82-13.6L270.82-13.6Q270.8-13.65 270.74-13.87 270.68-14.09 270.68-14.18L270.68-14.18 270.68-17.14Q270.68-17.16 270.72-17.37 270.77-17.58 270.85-17.87 270.92-18.16 271.01-18.46 271.09-18.75 271.14-18.92L271.14-18.92Q271.21-19.26 271.32-19.42 271.43-19.58 271.58-19.68 271.73-19.78 271.91-19.85 272.09-19.92 272.31-20.09L272.31-20.09Q272.38-20.17 272.6-20.39 272.82-20.61 273.07-20.86 273.31-21.12 273.53-21.34 273.75-21.56 273.8-21.63L273.8-21.63Q273.95-21.75 274.26-21.81 274.58-21.88 274.68-21.92L274.68-21.92Q275.41-22.14 276.1-22.24 276.78-22.34 277.56-22.34L277.56-22.34 278.27-22.34Q278.41-22.34 278.77-22.33 279.12-22.31 279.51-22.29 279.9-22.27 280.26-22.25 280.61-22.24 280.76-22.22L280.76-22.22Q280.98-22.14 281.28-21.91 281.59-21.68 281.88-21.39 282.17-21.09 282.37-20.75 282.57-20.41 282.57-20.09L282.57-20.09Q282.54-20.07 282.49-19.82 282.44-19.58 282.44-19.51L282.44-19.51 282.44-18.33Q282.42-18.29 282.38-18.13 282.35-17.97 282.3-17.77 282.25-17.58 282.19-17.4 282.13-17.21 282.1-17.14L282.1-17.14Q282.08-17.02 281.97-16.99 281.86-16.97 281.74-16.97L281.74-16.97 281.22-16.97Q281.1-17.02 281.01-17.15 280.93-17.29 280.86-17.43 280.78-17.58 280.73-17.71 280.69-17.85 280.64-17.92L280.64-17.92Q280.59-17.94 280.49-18.04 280.39-18.14 280.28-18.26 280.17-18.38 280.06-18.49 279.95-18.6 279.9-18.68L279.9-18.68Q279.88-18.68 279.75-18.71 279.61-18.75 279.59-18.8L279.59-18.8Q279.44-18.87 279.37-19.01 279.29-19.14 279.23-19.29 279.17-19.43 279.09-19.58 279-19.73 278.85-19.85L278.85-19.85Q278.76-19.87 278.51-19.97 278.27-20.07 277.98-20.15 277.68-20.24 277.41-20.32 277.15-20.41 277.05-20.43L277.05-20.43 276.32-20.43Q276.24-20.36 276.07-20.2 275.9-20.04 275.7-19.85 275.51-19.65 275.35-19.49 275.19-19.34 275.14-19.26L275.14-19.26Q274.83-18.85 274.75-18.24 274.68-17.63 274.68-17.14L274.68-17.14Q274.68-16.72 274.79-16.38 274.9-16.04 275.08-15.72 275.27-15.41 275.51-15.11 275.75-14.82 276.02-14.48L276.02-14.48Q276.24-14.18 276.5-14.07 276.75-13.96 277.04-13.92 277.32-13.87 277.58-13.82 277.85-13.77 278.1-13.6L278.1-13.6Q278.12-13.57 278.26-13.45 278.39-13.33 278.54-13.21 278.68-13.09 278.82-12.98 278.95-12.87 278.98-12.84L278.98-12.84Q279.03-12.79 279.16-12.71 279.29-12.62 279.44-12.54 279.59-12.45 279.72-12.37 279.86-12.28 279.9-12.26L279.9-12.26Q279.95-12.21 280.2-12.1 280.44-11.99 280.51-11.96L280.51-11.96Q280.51-11.91 280.59-11.79 280.66-11.67 280.93-11.18L280.93-11.18 282.1-10.01 282.57-9.72Q282.91-9.45 282.97-8.96 283.03-8.47 283.03-8.03L283.03-8.03 283.03-6.47Q282.91-6.25 282.89-6.02 282.88-5.79 282.88-5.57L282.88-5.57 282.88-4.81Q282.88-4.71 282.81-4.49 282.74-4.27 282.71-4.22L282.71-4.22Q282.71-4.2 282.65-4.11 282.59-4.03 282.52-3.93 282.44-3.83 282.37-3.75 282.3-3.66 282.27-3.64L282.27-3.64Q282.25-3.56 282.2-3.32 282.15-3.08 282.1-3.05L282.1-3.05 281.98-2.59Q281.91-2.49 281.7-2.25 281.49-2 281.25-1.75 281-1.49 280.8-1.27 280.59-1.05 280.51-0.98L280.51-0.98Q280.44-0.9 280.27-0.79 280.1-0.68 280.05-0.63L280.05-0.63Q280-0.63 279.86-0.62 279.71-0.61 279.53-0.59 279.34-0.56 279.18-0.54 279.03-0.51 278.98-0.51L278.98-0.51Q278.68-0.44 278.39-0.31 278.1-0.17 277.8-0.02 277.51 0.12 277.22 0.24 276.93 0.37 276.61 0.39L276.61 0.39Q276.58 0.39 276.17 0.4 275.75 0.42 275.49 0.42L275.49 0.42 274.39 0.39Q274.29 0.34 274.01 0.23 273.73 0.12 273.65 0.07L273.65 0.07Q273.36-0.02 273.06-0.07 272.75-0.12 272.45-0.16 272.14-0.2 271.85-0.27 271.55-0.34 271.26-0.51L271.26-0.51Q270.97-0.66 270.68-0.94 270.38-1.22 270.15-1.56 269.92-1.9 269.78-2.28 269.65-2.66 269.65-3L269.65-3Z" opacity="1" transform="matrix(1,0,0,1,0,0)" fill="#ffffff" class="wordmark-text-0" data-fill-palette-color="quaternary" id="text-0"></path></svg></g></svg></g><g transform="matrix(1,0,0,1,0,32.42901548118988)"><svg viewBox="0 0 213.1584412271571 15.612352715718224" height="15.612352715718224" width="213.1584412271571"><g transform="matrix(1,0,0,1,0,0)"><svg width="213.1584412271571" viewBox="0.65 -37 641.64 47" height="15.612352715718224" data-palette-color="#ffffff"><path d="M16.85 0L12.65 0 12.65-13.8 0.65-34.9 5.45-34.9 14.75-18.1 14.9-18.1 24.2-34.9 29-34.9 16.85-13.95 16.85 0ZM41.15 0.6L41.15 0.6Q38.55 0.6 36.4-0.35 34.25-1.3 32.72-3.08 31.2-4.85 30.35-7.33 29.5-9.8 29.5-12.9L29.5-12.9Q29.5-15.95 30.35-18.45 31.2-20.95 32.72-22.73 34.25-24.5 36.4-25.45 38.55-26.4 41.15-26.4L41.15-26.4Q43.75-26.4 45.87-25.45 48-24.5 49.55-22.73 51.1-20.95 51.95-18.45 52.8-15.95 52.8-12.9L52.8-12.9Q52.8-9.8 51.95-7.33 51.1-4.85 49.55-3.08 48-1.3 45.87-0.35 43.75 0.6 41.15 0.6ZM41.15-2.95L41.15-2.95Q44.4-2.95 46.45-4.95 48.5-6.95 48.5-11.05L48.5-11.05 48.5-14.75Q48.5-18.85 46.45-20.85 44.4-22.85 41.15-22.85L41.15-22.85Q37.9-22.85 35.85-20.85 33.8-18.85 33.8-14.75L33.8-14.75 33.8-11.05Q33.8-6.95 35.85-4.95 37.9-2.95 41.15-2.95ZM75.3 0L75.3-4.2 75.09-4.2Q74.7-3.3 74.12-2.43 73.55-1.55 72.7-0.88 71.84-0.2 70.65 0.2 69.45 0.6 67.84 0.6L67.84 0.6Q63.85 0.6 61.5-1.98 59.15-4.55 59.15-9.25L59.15-9.25 59.15-25.8 63.15-25.8 63.15-9.95Q63.15-3 69.05-3L69.05-3Q70.25-3 71.37-3.3 72.5-3.6 73.37-4.2 74.25-4.8 74.77-5.73 75.3-6.65 75.3-7.95L75.3-7.95 75.3-25.8 79.3-25.8 79.3 0 75.3 0ZM91.79 0L87.79 0 87.79-25.8 91.79-25.8 91.79-21.05 92.04-21.05Q92.74-22.9 94.54-24.35 96.34-25.8 99.49-25.8L99.49-25.8 101.04-25.8 101.04-21.8 98.69-21.8Q95.44-21.8 93.62-20.58 91.79-19.35 91.79-17.5L91.79-17.5 91.79 0ZM144.59 0L140.19 0 136.69-10.3 122.59-10.3 119.09 0 114.84 0 127.04-34.9 132.39-34.9 144.59 0ZM135.64-14L129.74-31 129.49-31 123.59-14 135.64-14ZM153.99 0L149.99 0 149.99-25.8 153.99-25.8 153.99-21.6 154.19-21.6Q155.14-23.8 156.86-25.1 158.59-26.4 161.49-26.4L161.49-26.4Q165.49-26.4 167.81-23.83 170.14-21.25 170.14-16.55L170.14-16.55 170.14 0 166.14 0 166.14-15.85Q166.14-22.8 160.29-22.8L160.29-22.8Q159.09-22.8 157.96-22.5 156.84-22.2 155.94-21.6 155.04-21 154.51-20.08 153.99-19.15 153.99-17.9L153.99-17.9 153.99 0ZM194.88 0L194.88-4.2 194.68-4.2Q192.33 0.6 187.13 0.6L187.13 0.6Q184.73 0.6 182.78-0.35 180.83-1.3 179.46-3.05 178.08-4.8 177.36-7.3 176.63-9.8 176.63-12.9L176.63-12.9Q176.63-16 177.36-18.5 178.08-21 179.46-22.75 180.83-24.5 182.78-25.45 184.73-26.4 187.13-26.4L187.13-26.4Q189.83-26.4 191.76-25.23 193.68-24.05 194.68-21.6L194.68-21.6 194.88-21.6 194.88-37 198.88-37 198.88 0 194.88 0ZM188.23-3L188.23-3Q189.58-3 190.81-3.35 192.03-3.7 192.93-4.38 193.83-5.05 194.36-6.03 194.88-7 194.88-8.25L194.88-8.25 194.88-17.85Q194.88-18.9 194.36-19.83 193.83-20.75 192.93-21.4 192.03-22.05 190.81-22.43 189.58-22.8 188.23-22.8L188.23-22.8Q184.83-22.8 182.88-20.68 180.93-18.55 180.93-15.1L180.93-15.1 180.93-10.7Q180.93-7.25 182.88-5.13 184.83-3 188.23-3ZM211.38 0L207.38 0 207.38-25.8 211.38-25.8 211.38-21.05 211.63-21.05Q212.33-22.9 214.13-24.35 215.93-25.8 219.08-25.8L219.08-25.8 220.63-25.8 220.63-21.8 218.28-21.8Q215.03-21.8 213.21-20.58 211.38-19.35 211.38-17.5L211.38-17.5 211.38 0ZM235.23 0.6L235.23 0.6Q232.63 0.6 230.48-0.35 228.33-1.3 226.8-3.08 225.28-4.85 224.43-7.33 223.58-9.8 223.58-12.9L223.58-12.9Q223.58-15.95 224.43-18.45 225.28-20.95 226.8-22.73 228.33-24.5 230.48-25.45 232.63-26.4 235.23-26.4L235.23-26.4Q237.83-26.4 239.95-25.45 242.08-24.5 243.63-22.73 245.18-20.95 246.03-18.45 246.88-15.95 246.88-12.9L246.88-12.9Q246.88-9.8 246.03-7.33 245.18-4.85 243.63-3.08 242.08-1.3 239.95-0.35 237.83 0.6 235.23 0.6ZM235.23-2.95L235.23-2.95Q238.48-2.95 240.53-4.95 242.58-6.95 242.58-11.05L242.58-11.05 242.58-14.75Q242.58-18.85 240.53-20.85 238.48-22.85 235.23-22.85L235.23-22.85Q231.98-22.85 229.93-20.85 227.88-18.85 227.88-14.75L227.88-14.75 227.88-11.05Q227.88-6.95 229.93-4.95 231.98-2.95 235.23-2.95ZM263.23 0.6L263.23 0.6Q260.63 0.6 258.48-0.35 256.33-1.3 254.8-3.08 253.28-4.85 252.43-7.33 251.58-9.8 251.58-12.9L251.58-12.9Q251.58-15.95 252.43-18.45 253.28-20.95 254.8-22.73 256.33-24.5 258.48-25.45 260.63-26.4 263.23-26.4L263.23-26.4Q265.83-26.4 267.95-25.45 270.08-24.5 271.63-22.73 273.18-20.95 274.03-18.45 274.88-15.95 274.88-12.9L274.88-12.9Q274.88-9.8 274.03-7.33 273.18-4.85 271.63-3.08 270.08-1.3 267.95-0.35 265.83 0.6 263.23 0.6ZM263.23-2.95L263.23-2.95Q266.48-2.95 268.53-4.95 270.58-6.95 270.58-11.05L270.58-11.05 270.58-14.75Q270.58-18.85 268.53-20.85 266.48-22.85 263.23-22.85L263.23-22.85Q259.98-22.85 257.93-20.85 255.88-18.85 255.88-14.75L255.88-14.75 255.88-11.05Q255.88-6.95 257.93-4.95 259.98-2.95 263.23-2.95ZM285.47 0L281.47 0 281.47-25.8 285.47-25.8 285.47-21.6 285.67-21.6Q286.62-23.8 288.35-25.1 290.07-26.4 292.97-26.4L292.97-26.4Q296.97-26.4 299.3-23.83 301.62-21.25 301.62-16.55L301.62-16.55 301.62 0 297.62 0 297.62-15.85Q297.62-22.8 291.77-22.8L291.77-22.8Q290.57-22.8 289.45-22.5 288.32-22.2 287.42-21.6 286.52-21 286-20.08 285.47-19.15 285.47-17.9L285.47-17.9 285.47 0ZM341.12 0L322.07 0 322.07-34.9 326.27-34.9 326.27-3.7 341.12-3.7 341.12 0ZM367.67 0L365.42 0Q363.17 0 362.19-1.2 361.22-2.4 360.97-4.2L360.97-4.2 360.72-4.2Q359.87-1.8 357.92-0.6 355.97 0.6 353.27 0.6L353.27 0.6Q349.17 0.6 346.89-1.5 344.62-3.6 344.62-7.2L344.62-7.2Q344.62-10.85 347.29-12.8 349.97-14.75 355.62-14.75L355.62-14.75 360.72-14.75 360.72-17.3Q360.72-20.05 359.22-21.5 357.72-22.95 354.62-22.95L354.62-22.95Q352.27-22.95 350.69-21.9 349.12-20.85 348.06-19.1L348.06-19.1 345.67-21.35Q346.72-23.45 349.02-24.93 351.31-26.4 354.81-26.4L354.81-26.4Q359.52-26.4 362.12-24.1 364.72-21.8 364.72-17.7L364.72-17.7 364.72-3.5 367.67-3.5 367.67 0ZM353.92-2.8L353.92-2.8Q355.42-2.8 356.67-3.15 357.92-3.5 358.81-4.15 359.72-4.8 360.22-5.65 360.72-6.5 360.72-7.5L360.72-7.5 360.72-11.75 355.42-11.75Q351.97-11.75 350.39-10.75 348.81-9.75 348.81-7.85L348.81-7.85 348.81-6.8Q348.81-4.9 350.19-3.85 351.56-2.8 353.92-2.8ZM373.36 0L373.36-37 377.36-37 377.36-21.6 377.56-21.6Q378.51-23.8 380.24-25.1 381.96-26.4 384.86-26.4L384.86-26.4Q388.86-26.4 391.19-23.83 393.51-21.25 393.51-16.55L393.51-16.55 393.51 0 389.51 0 389.51-15.85Q389.51-22.8 383.66-22.8L383.66-22.8Q382.46-22.8 381.34-22.5 380.21-22.2 379.31-21.6 378.41-21 377.89-20.08 377.36-19.15 377.36-17.9L377.36-17.9 377.36 0 373.36 0ZM411.51 0.6L411.51 0.6Q408.91 0.6 406.76-0.35 404.61-1.3 403.08-3.08 401.56-4.85 400.71-7.33 399.86-9.8 399.86-12.9L399.86-12.9Q399.86-15.95 400.71-18.45 401.56-20.95 403.08-22.73 404.61-24.5 406.76-25.45 408.91-26.4 411.51-26.4L411.51-26.4Q414.11-26.4 416.24-25.45 418.36-24.5 419.91-22.73 421.46-20.95 422.31-18.45 423.16-15.95 423.16-12.9L423.16-12.9Q423.16-9.8 422.31-7.33 421.46-4.85 419.91-3.08 418.36-1.3 416.24-0.35 414.11 0.6 411.51 0.6ZM411.51-2.95L411.51-2.95Q414.76-2.95 416.81-4.95 418.86-6.95 418.86-11.05L418.86-11.05 418.86-14.75Q418.86-18.85 416.81-20.85 414.76-22.85 411.51-22.85L411.51-22.85Q408.26-22.85 406.21-20.85 404.16-18.85 404.16-14.75L404.16-14.75 404.16-11.05Q404.16-6.95 406.21-4.95 408.26-2.95 411.51-2.95ZM433.76 0L429.76 0 429.76-25.8 433.76-25.8 433.76-21.05 434.01-21.05Q434.71-22.9 436.51-24.35 438.31-25.8 441.46-25.8L441.46-25.8 443.01-25.8 443.01-21.8 440.66-21.8Q437.41-21.8 435.58-20.58 433.76-19.35 433.76-17.5L433.76-17.5 433.76 0ZM457.56 0.6L457.56 0.6Q454.91 0.6 452.78-0.35 450.66-1.3 449.13-3.08 447.61-4.85 446.78-7.33 445.96-9.8 445.96-12.9L445.96-12.9Q445.96-15.95 446.78-18.45 447.61-20.95 449.13-22.73 450.66-24.5 452.78-25.45 454.91-26.4 457.56-26.4L457.56-26.4Q460.16-26.4 462.21-25.45 464.25-24.5 465.71-22.83 467.16-21.15 467.93-18.85 468.71-16.55 468.71-13.8L468.71-13.8 468.71-11.9 450.16-11.9 450.16-10.7Q450.16-9.05 450.68-7.63 451.21-6.2 452.18-5.15 453.16-4.1 454.58-3.5 456-2.9 457.81-2.9L457.81-2.9Q460.25-2.9 462.08-4.05 463.91-5.2 464.91-7.35L464.91-7.35 467.75-5.3Q466.5-2.65 463.86-1.03 461.21 0.6 457.56 0.6ZM457.56-23.05L457.56-23.05Q455.91-23.05 454.56-22.48 453.21-21.9 452.23-20.85 451.25-19.8 450.71-18.38 450.16-16.95 450.16-15.25L450.16-15.25 450.16-14.9 464.41-14.9 464.41-15.45Q464.41-18.9 462.53-20.98 460.66-23.05 457.56-23.05ZM508.8 0L487.5 0 487.5-34.9 508.8-34.9 508.8-31.2 491.7-31.2 491.7-19.5 507.8-19.5 507.8-15.8 491.7-15.8 491.7-3.7 508.8-3.7 508.8 0ZM524 0.6L524 0.6Q520.4 0.6 517.97-0.78 515.55-2.15 513.8-4.45L513.8-4.45 516.65-6.75Q518.15-4.85 520-3.83 521.85-2.8 524.3-2.8L524.3-2.8Q526.85-2.8 528.27-3.9 529.7-5 529.7-7L529.7-7Q529.7-8.5 528.72-9.58 527.75-10.65 525.2-11.05L525.2-11.05 523.15-11.35Q521.35-11.6 519.85-12.13 518.35-12.65 517.22-13.53 516.1-14.4 515.47-15.7 514.85-17 514.85-18.8L514.85-18.8Q514.85-20.7 515.55-22.13 516.25-23.55 517.47-24.5 518.7-25.45 520.4-25.93 522.1-26.4 524.05-26.4L524.05-26.4Q527.2-26.4 529.32-25.3 531.45-24.2 533.05-22.25L533.05-22.25 530.4-19.85Q529.55-21.05 527.9-22.03 526.25-23 523.75-23L523.75-23Q521.25-23 519.97-21.93 518.7-20.85 518.7-19L518.7-19Q518.7-17.1 519.97-16.25 521.25-15.4 523.65-15L523.65-15 525.65-14.7Q529.95-14.05 531.75-12.23 533.55-10.4 533.55-7.45L533.55-7.45Q533.55-3.7 531-1.55 528.45 0.6 524 0.6ZM550.19 0.6L550.19 0.6Q547.49 0.6 545.34-0.35 543.19-1.3 541.72-3.05 540.24-4.8 539.47-7.3 538.69-9.8 538.69-12.9L538.69-12.9Q538.69-16 539.47-18.5 540.24-21 541.72-22.75 543.19-24.5 545.34-25.45 547.49-26.4 550.19-26.4L550.19-26.4Q554.04-26.4 556.37-24.73 558.69-23.05 559.84-20.35L559.84-20.35 556.49-18.65Q555.79-20.65 554.19-21.75 552.59-22.85 550.19-22.85L550.19-22.85Q548.39-22.85 547.04-22.28 545.69-21.7 544.79-20.68 543.89-19.65 543.44-18.23 542.99-16.8 542.99-15.1L542.99-15.1 542.99-10.7Q542.99-7.3 544.82-5.13 546.64-2.95 550.19-2.95L550.19-2.95Q555.04-2.95 557.19-7.45L557.19-7.45 560.09-5.5Q558.84-2.7 556.37-1.05 553.89 0.6 550.19 0.6ZM586.74 0L584.49 0Q582.24 0 581.27-1.2 580.29-2.4 580.04-4.2L580.04-4.2 579.79-4.2Q578.94-1.8 576.99-0.6 575.04 0.6 572.34 0.6L572.34 0.6Q568.24 0.6 565.97-1.5 563.69-3.6 563.69-7.2L563.69-7.2Q563.69-10.85 566.37-12.8 569.04-14.75 574.69-14.75L574.69-14.75 579.79-14.75 579.79-17.3Q579.79-20.05 578.29-21.5 576.79-22.95 573.69-22.95L573.69-22.95Q571.34-22.95 569.77-21.9 568.19-20.85 567.14-19.1L567.14-19.1 564.74-21.35Q565.79-23.45 568.09-24.93 570.39-26.4 573.89-26.4L573.89-26.4Q578.59-26.4 581.19-24.1 583.79-21.8 583.79-17.7L583.79-17.7 583.79-3.5 586.74-3.5 586.74 0ZM572.99-2.8L572.99-2.8Q574.49-2.8 575.74-3.15 576.99-3.5 577.89-4.15 578.79-4.8 579.29-5.65 579.79-6.5 579.79-7.5L579.79-7.5 579.79-11.75 574.49-11.75Q571.04-11.75 569.47-10.75 567.89-9.75 567.89-7.85L567.89-7.85 567.89-6.8Q567.89-4.9 569.27-3.85 570.64-2.8 572.99-2.8ZM592.44 10L592.44-25.8 596.44-25.8 596.44-21.6 596.64-21.6Q597.64-24.05 599.56-25.23 601.49-26.4 604.19-26.4L604.19-26.4Q606.59-26.4 608.54-25.45 610.49-24.5 611.86-22.75 613.24-21 613.96-18.5 614.69-16 614.69-12.9L614.69-12.9Q614.69-9.8 613.96-7.3 613.24-4.8 611.86-3.05 610.49-1.3 608.54-0.35 606.59 0.6 604.19 0.6L604.19 0.6Q598.94 0.6 596.64-4.2L596.64-4.2 596.44-4.2 596.44 10 592.44 10ZM603.09-3L603.09-3Q606.49-3 608.44-5.13 610.39-7.25 610.39-10.7L610.39-10.7 610.39-15.1Q610.39-18.55 608.44-20.68 606.49-22.8 603.09-22.8L603.09-22.8Q601.74-22.8 600.51-22.43 599.29-22.05 598.39-21.4 597.49-20.75 596.96-19.83 596.44-18.9 596.44-17.85L596.44-17.85 596.44-8.25Q596.44-7 596.96-6.03 597.49-5.05 598.39-4.38 599.29-3.7 600.51-3.35 601.74-3 603.09-3ZM631.14 0.6L631.14 0.6Q628.49 0.6 626.36-0.35 624.24-1.3 622.71-3.08 621.19-4.85 620.36-7.33 619.54-9.8 619.54-12.9L619.54-12.9Q619.54-15.95 620.36-18.45 621.19-20.95 622.71-22.73 624.24-24.5 626.36-25.45 628.49-26.4 631.14-26.4L631.14-26.4Q633.74-26.4 635.79-25.45 637.84-24.5 639.29-22.83 640.74-21.15 641.51-18.85 642.29-16.55 642.29-13.8L642.29-13.8 642.29-11.9 623.74-11.9 623.74-10.7Q623.74-9.05 624.26-7.63 624.79-6.2 625.76-5.15 626.74-4.1 628.16-3.5 629.59-2.9 631.39-2.9L631.39-2.9Q633.84-2.9 635.66-4.05 637.49-5.2 638.49-7.35L638.49-7.35 641.34-5.3Q640.09-2.65 637.44-1.03 634.79 0.6 631.14 0.6ZM631.14-23.05L631.14-23.05Q629.49-23.05 628.14-22.48 626.79-21.9 625.81-20.85 624.84-19.8 624.29-18.38 623.74-16.95 623.74-15.25L623.74-15.25 623.74-14.9 637.99-14.9 637.99-15.45Q637.99-18.9 636.11-20.98 634.24-23.05 631.14-23.05Z" opacity="1" transform="matrix(1,0,0,1,0,0)" fill="#ffffff" class="slogan-text-1" data-fill-palette-color="quaternary" id="text-1"></path></svg></g></svg></g></svg></g></svg></g><g transform="matrix(1,0,0,1,50.089841551523364,0)"><svg viewBox="0 0 112.97875812411039 66.393170848127" height="66.393170848127" width="112.97875812411039"><g><svg xmlns="http://www.w3.org/2000/svg" xmlns:xlink="http://www.w3.org/1999/xlink" version="1.1" x="0" y="0" viewBox="58.106 150.48194527528415 84.761 49.81070466428801" enable-background="new 50.487 132.5 100 100" xml:space="preserve" height="66.393170848127" width="112.97875812411039" class="icon-icon-0" data-fill-palette-color="quaternary" id="icon-0"><path d="M142.867 170.937c0 0-8.11-20.3-38.496-20.454-25.885-0.132-43.049 12.163-44.509 16.042-1.555 4.136-1.719 5.824-1.719 5.824s-0.427 0.594 5.07-1.204c9.101-2.979 14.011-2.922 23.764-2.204 13.845 1.018 9.697 1.606 23.039 3.518 10.045 1.437 13.955 2.068 22.247 1.034C137.525 172.833 142.867 170.937 142.867 170.937z" fill="#ffffff" data-fill-palette-color="quaternary"></path><path d="M58.106 178.665c0 0 1.062 18.114 13.251 20.224 7.438 1.285 17.105 0.883 26.789 1.314 30.69 1.365 41.506-13.25 42.964-17.124 1.555-4.138 1.717-5.826 1.717-5.826s0.312-0.916-5.068 1.204c-7.875 3.099-11.349 3.234-20.641 2.637-13.853-0.888-12.82-2.04-26.162-3.95-10.045-1.438-13.954-2.068-22.248-1.034C63.445 176.769 58.106 178.665 58.106 178.665z" fill="#ffffff" data-fill-palette-color="quaternary"></path></svg></g></svg></g><g></g></svg></g></svg></g></svg></g></svg></g><defs></defs></svg><rect width="342.85155851775386" height="342.85155851775386" fill="none" stroke="none" visibility="hidden"></rect></g></svg></g></svg>